<?xml version="1.0" encoding="utf-8"?>
<!-- Generator: Adobe Illustrator 17.0.0, SVG Export Plug-In . SVG Version: 6.00 Build 0)  -->
<!DOCTYPE svg PUBLIC "-//W3C//DTD SVG 1.1//EN" "http://www.w3.org/Graphics/SVG/1.1/DTD/svg11.dtd">
<svg version="1.1" id="Layer_1" xmlns="http://www.w3.org/2000/svg" xmlns:xlink="http://www.w3.org/1999/xlink" x="0px" y="0px"
	 width="310.08px" height="68.106px" viewBox="0 0 310.08 68.106" enable-background="new 0 0 310.08 68.106" xml:space="preserve">
<path fill="#D1D3D4" d="M306.147,116.11"/>
<rect x="62.332" y="18.141" fill="none" width="252.423" height="44.096"/>
<text transform="matrix(1 0 0 1 62.3321 52.9305)" font-family="'MyriadPro-Regular'" font-size="49">Big Red Den</text>
<g>
	<g>
		<defs>
			<filter id="Adobe_OpacityMaskFilter" filterUnits="userSpaceOnUse" x="35.686" y="3.902" width="32.568" height="59.46">
				<feFlood  style="flood-color:white;flood-opacity:1" result="back"/>
				<feBlend  in="SourceGraphic" in2="back" mode="normal"/>
			</filter>
		</defs>
		<mask maskUnits="userSpaceOnUse" x="35.686" y="3.902" width="32.568" height="59.46" id="SVGID_1_">
			<g filter="url(#Adobe_OpacityMaskFilter)">
				<polygon fill="#585857" points="40.584,60.919 37.188,62.753 37.663,59.391 				"/>
			</g>
		</mask>
		<g mask="url(#SVGID_1_)">
			<g>
				<polygon opacity="0.48" fill="#ED1C24" points="36.883,32.565 36.883,39.336 37.301,39.013 37.456,39.049 37.767,38.739 
					37.934,38.691 38.077,38.536 38.495,38.368 38.865,37.962 39.579,36.753 39.65,36.628 39.883,36.261 39.964,36.117 
					40.027,35.67 39.725,34.571 39.235,34.022 39.367,33.807 39.319,33.293 39.45,32.66 38.662,31.598 37.802,32.553 37.408,32.744 
									"/>
				<path opacity="0.48" fill="#ED1C24" d="M38.505,35.084l0.597,0.299l-0.107-0.203l0.382-0.06l0.179-0.322l-0.155-0.239
					l0.334-0.027l-0.465-0.522l0.018-0.03l-0.042-0.041l-0.502-0.084l-0.37-0.502l-0.227-0.036l-0.502-0.322l-0.728-0.086v2.301
					l0.502,0.138v-0.036c0.048,0.06,0.382,0.478,0.382,0.478L38.505,35.084z"/>
				<polygon opacity="0.3" fill="#ED1C24" points="38.483,38.177 39.2,37.115 39.009,36.565 39.474,35.61 38.471,35.096 
					37.767,35.801 37.659,35.693 37.659,35.992 37.814,36.243 37.814,36.762 36.883,37.275 36.883,39.069 37.85,38.261 
					37.826,38.571 				"/>
				<polygon fill="#FFFFFF" points="38.388,34.989 38.155,34.541 37.653,34.272 37.259,34.613 37.205,34.953 37.307,36.07 
					37.588,36.35 37.588,36.709 37.122,36.446 36.895,36.446 36.883,36.588 36.883,37.584 37.325,37.604 37.707,37.031 
					37.695,36.255 37.432,36.016 37.385,35.323 37.755,35.55 				"/>
				<polygon opacity="0.48" fill="#ED1C24" points="37.408,32.744 36.883,32.565 36.883,34.553 37.217,35.049 37.205,34.607 
					37.17,34.38 37.802,32.553 				"/>
				<polygon opacity="0.48" fill="#95A0AC" points="36.883,34.38 37.17,34.38 37.48,33.425 36.883,32.885 				"/>
				<polygon opacity="0.48" fill="#95A0AC" points="36.883,36.446 37.122,36.446 37.017,34.72 36.883,34.557 				"/>
				<polygon opacity="0.48" fill="#ACB8C5" points="37.253,37.974 37.472,37.712 37.77,37.085 37.006,37.207 36.883,37.275 
					36.883,37.974 				"/>
				<polygon fill="#FFFFFF" points="36.883,37.885 37.229,37.885 37.429,37.622 37.644,37.076 36.883,37.138 				"/>
				<polygon fill="#102530" points="37.725,37.076 37.949,36.861 37.946,36.601 37.814,36.762 37.671,37.055 37.331,37.55 
					36.883,37.538 36.883,37.676 37.337,37.628 				"/>
				<path fill="#263D48" d="M37.122,36.589h-0.239v0.481c0.177-0.016,0.537-0.048,0.537-0.039l-0.119-0.263L37.122,36.589z"/>
				<polygon opacity="0.48" fill="#ED1C24" points="38.101,33.341 38.346,33.377 38.495,33.592 38.268,32.983 38.543,32.816 
					38.543,32.386 38.71,31.824 39.14,32.242 38.662,31.598 37.802,32.553 37.641,33.036 				"/>
				<path fill="#FFFFFF" d="M38.483,33.558l-0.214-0.576l0.275-0.167v-0.43l0.167-0.561l0.418,0.788l-0.31,0.263l0.155,0.131
					l-0.179,0.143l0.263,0.215l-0.305,0.508l-0.041-0.007L38.483,33.558z"/>
				<line fill="#FFFFFF" x1="39.056" y1="33.365" x2="38.794" y2="33.15"/>
				<polygon opacity="0.48" fill="#95A0AC" points="38.841,33.377 38.579,33.162 38.758,33.019 38.603,32.887 38.913,32.625 
					38.63,32.092 38.543,32.386 38.543,32.816 38.268,32.983 38.483,33.558 38.62,33.745 				"/>
				<polygon opacity="0.48" fill="#ACB8C5" points="36.883,38.412 37.253,37.974 36.883,37.979 				"/>
				<polygon opacity="0.48" fill="#102530" points="36.883,37.979 36.883,38.412 37.253,37.974 				"/>
				<polygon opacity="0.48" fill="#95A0AC" points="39.067,36.734 39.009,36.565 38.137,37.873 				"/>
				<polygon opacity="0.37" fill="#263D48" points="38.397,33.328 38.268,32.983 38.543,32.816 38.543,32.386 38.71,31.824 
					39.14,32.242 38.682,31.624 38.376,32.362 38.447,32.708 38.125,32.899 38.346,33.377 38.388,33.341 				"/>
				<path opacity="0.3" fill="#BE1E2D" d="M39.522,34.81l-0.155-0.239l0.334-0.027l-0.465-0.522l0.018-0.03l-0.042-0.041
					l-0.46-0.077l0,0c0,0-0.546,0.668-0.591,0.674c0,0,0.224,0.478,0.251,0.478c0.004,0-0.03,0.102,0.01,0.122l0.05-0.05
					l0.597,0.299l-0.107-0.203l0.382-0.06L39.522,34.81z"/>
				<polygon fill="#ACB8C5" points="37.301,39.013 37.456,39.049 37.767,38.739 37.783,38.734 37.877,38.186 37.299,39.015 				"/>
				<polygon opacity="0.48" fill="#95A0AC" points="39.768,34.728 39.776,35.723 39.892,36.225 39.901,36.229 39.964,36.117 
					40.027,35.67 39.925,35.298 				"/>
				<polygon fill="#ACB8C5" points="39.661,36.632 39.474,35.61 39.122,36.341 39.579,36.753 39.65,36.628 				"/>
				<polygon opacity="0.48" fill="#ACB8C5" points="36.883,37.012 37.229,36.959 37.126,36.594 37.122,36.589 36.883,36.589 				"/>
				<polygon fill="#102530" points="36.883,36.959 36.874,37.329 36.892,37.507 37.182,37.389 37.349,37.27 37.42,37.031 
					37.229,36.959 				"/>
				<polygon opacity="0.48" fill="#ACB8C5" points="37.08,37.204 37.11,37.3 37.28,37.319 37.349,37.27 37.36,37.231 				"/>
				<path fill="#0C1316" d="M37.373,37.126c-0.024,0.012-0.31,0.048-0.31,0.048l0.024,0.066l0.248,0.04l0.015-0.011l0.026-0.087
					L37.373,37.126z"/>
				<polygon fill="#FFFFFF" points="36.883,36.834 36.883,36.959 37.229,36.959 				"/>
				<g>
					<path fill="#ACB8C5" d="M37.707,34.614l-0.124,0.295c0,0,0.075,0.268,0.075,0.283l0.339-0.609L37.707,34.614z"/>
					<polygon fill="#D9DAD9" points="37.676,35.157 37.62,34.902 37.737,34.661 37.949,34.604 38.161,34.656 38.265,34.868 					"/>
					<polygon fill="#102530" points="37.655,35.194 37.728,34.925 37.935,34.79 38.225,34.863 38.069,35.153 37.779,35.194 					"/>
					<polygon opacity="0.48" fill="#ACB8C5" points="37.368,34.519 38.158,34.547 38.155,34.541 37.653,34.272 					"/>
					<g>
						<path fill="#00AEEF" d="M38.004,34.834l-0.105-0.026l-0.146,0.095c-0.01,0.022-0.016,0.047-0.016,0.073
							c0,0.094,0.076,0.171,0.171,0.171s0.171-0.076,0.171-0.171C38.078,34.917,38.049,34.865,38.004,34.834z"/>
						<path fill="#1C75BC" d="M37.978,34.839l-0.082-0.021l-0.115,0.074c-0.008,0.017-0.013,0.037-0.013,0.057
							c0,0.074,0.06,0.134,0.134,0.134c0.074,0,0.134-0.06,0.134-0.134C38.037,34.904,38.013,34.863,37.978,34.839z"/>
						<circle fill="#010101" cx="37.898" cy="34.947" r="0.096"/>
						<circle fill="#FFFFFF" cx="37.982" cy="34.927" r="0.057"/>
						<path opacity="0.37" fill="#263D48" d="M38.035,34.863c-0.009-0.011-0.02-0.02-0.032-0.028l-0.105-0.026l-0.146,0.095
							c-0.01,0.022-0.016,0.047-0.016,0.073l0.193-0.131L38.035,34.863z"/>
						<circle opacity="0.35" fill="#FFFFFF" cx="37.894" cy="35.057" r="0.062"/>
					</g>
				</g>
			</g>
			<polygon opacity="0.37" fill="#263D48" points="36.918,34.604 37.182,34.32 36.883,32.885 36.883,34.553 			"/>
			<path fill="#ED1C24" d="M39.775,35.61"/>
			<polygon fill="#14331C" points="58.373,17.927 61.127,22.839 64.222,16.565 			"/>
			<polygon fill="#493163" points="59.31,12.022 58.373,17.927 53.405,12.845 			"/>
			<polygon fill="#49312D" points="64.222,16.565 63.37,13.413 58.373,17.927 			"/>
			<polygon fill="#3A4F54" points="63.37,13.413 59.31,12.022 58.373,17.927 			"/>
			<polygon fill="#526487" points="59.31,12.022 57.266,10.915 53.405,12.845 			"/>
			<polygon fill="#526487" points="63.37,13.413 66.294,9.098 59.31,12.022 			"/>
			<polygon fill="#737372" points="64.222,16.565 68.253,14.492 63.37,13.413 			"/>
			<polygon fill="#2A4A33" points="64.222,16.565 64.609,21.448 61.127,22.839 			"/>
			<polygon fill="#69534D" points="57.266,10.915 58.373,7.366 59.31,12.022 			"/>
			<polygon fill="#8A979B" points="66.294,9.098 62.802,5.578 59.31,12.022 			"/>
			<polygon fill="#A0836B" points="62.802,5.578 58.373,7.366 59.31,12.022 			"/>
			<polygon fill="#896043" points="58.373,7.366 55.08,10.915 57.266,10.915 			"/>
			<polygon fill="#756260" points="57.266,10.915 53.405,12.845 55.08,10.915 			"/>
			<polygon fill="#6E877F" points="66.294,9.098 68.253,14.492 63.37,13.413 			"/>
			<polygon fill="#B2967D" points="68.253,14.492 64.609,21.448 64.222,16.565 			"/>
			<polygon fill="#E5D9EB" points="65.974,5.38 62.802,5.578 66.294,9.098 			"/>
			<polygon fill="#E9E9EA" points="65.974,5.38 59.31,3.902 62.802,5.578 			"/>
			<polygon fill="#FEF8CC" points="59.31,3.902 58.373,7.366 62.802,5.578 			"/>
			<polygon fill="#E9F3E3" points="59.31,3.902 53.644,8.074 58.373,7.366 			"/>
			<polygon fill="#B8E2E4" points="53.644,8.074 55.08,10.915 58.373,7.366 			"/>
			<polygon fill="#A1B0B5" points="55.08,10.915 51.295,11.294 53.405,12.845 			"/>
			<polygon fill="#E9E9EA" points="55.08,10.915 50.383,7.193 51.295,11.294 			"/>
			<polygon fill="#937775" points="43.171,20.922 45.882,19.56 46.776,23.35 			"/>
			<polygon fill="#FDFCE7" points="53.644,8.074 50.383,7.193 55.08,10.915 			"/>
			<polygon fill="#493163" points="45.562,22.406 43.171,20.922 43.029,22.981 			"/>
			<polygon fill="#69534D" points="42.518,23.641 44.869,23.591 43.341,26.203 			"/>
			<polygon fill="#FEF8CC" points="50.383,7.193 49.118,9.694 51.295,11.294 			"/>
			<polygon fill="#69534D" points="43.171,20.922 41.098,23.35 43.048,22.7 			"/>
			<polygon fill="#603163" points="41.098,23.35 42.518,23.641 43.341,26.203 			"/>
			<polygon fill="#3A4F54" points="45.562,22.406 46.592,25.209 46.776,23.35 			"/>
			<polygon fill="#2C4854" points="45.562,22.406 43.341,26.203 46.592,25.209 			"/>
			<polygon fill="#3A4F54" points="43.048,22.7 42.518,23.641 41.098,23.35 			"/>
			<path fill="#49312D" d="M45.562,22.406c0,0,0.106,1.766-1.852,1.682c0,0-0.852-0.107-1.192-0.447c0,0,0.086-1.044,1.235-1.235
				C44.902,22.215,45.562,22.406,45.562,22.406z"/>
			<circle fill="#FDD4B3" cx="43.582" cy="22.981" r="0.241"/>
			<polygon fill="#765A85" points="43.171,20.922 39.665,21.817 41.098,23.35 			"/>
			<polygon fill="#D48A72" points="43.171,20.922 41.098,19.063 39.665,21.817 			"/>
			<polygon fill="#B78D8D" points="43.341,26.203 40.513,26.863 39.665,21.817 41.098,23.35 			"/>
			<polygon fill="#E8AB7E" points="43.341,26.203 41.794,27.942 40.513,26.863 			"/>
			<polygon fill="#B4A18D" points="43.341,26.203 45.974,30.17 41.794,27.942 			"/>
			<polygon fill="#B78D8D" points="46.592,25.209 45.974,30.17 43.341,26.203 			"/>
			<polygon fill="#A5839B" points="46.592,25.209 49.544,29.773 45.974,30.17 			"/>
			<polygon fill="#E8AB7E" points="41.794,27.942 43.341,34.905 45.974,30.116 			"/>
			<polygon fill="#E9F3E3" points="38.927,29.227 41.794,27.942 40.513,26.863 			"/>
			<polygon fill="#FDD4B3" points="40.885,32.52 43.341,34.905 41.794,27.942 			"/>
			<polygon fill="#FEF8CC" points="41.794,27.942 38.927,29.227 40.885,32.52 			"/>
			<polygon fill="#E9E9EA" points="40.885,32.52 40.968,35.321 43.341,34.905 			"/>
			<polygon fill="#E5D9EB" points="43.341,34.905 45.562,40.327 42.759,38.652 			"/>
			<polygon fill="#C0B5DA" points="40.968,35.321 43.054,36.752 40.36,37.772 			"/>
			<polygon fill="#D2D3D4" points="40.968,35.321 43.054,36.752 43.341,34.905 			"/>
			<polygon fill="#8A97CB" points="41.503,40.838 42.518,45.324 38.927,42.315 			"/>
			<polygon fill="#B7BCCD" points="45.562,40.327 41.503,40.838 42.759,38.652 			"/>
			<polygon fill="#C3C3C7" points="40.36,37.772 42.759,38.652 41.503,40.838 			"/>
			<polygon fill="#CFCAE5" points="43.054,36.752 42.759,38.652 40.36,37.772 			"/>
			<polygon fill="#C0B5DA" points="41.503,40.838 43.533,40.583 42.518,45.324 			"/>
			<polygon fill="#756260" points="45.882,19.56 49.544,21.448 49.544,26.203 			"/>
			<polygon fill="#C3C3C7" points="54.431,33.881 58.978,31.495 57.65,39.077 			"/>
			<polygon fill="#8A979B" points="54.431,33.881 56.754,26.237 53.257,25.281 			"/>
			<polygon fill="#975E51" points="53.257,25.281 52.298,19.702 49.544,21.448 			"/>
			<polygon fill="#EFDFCE" points="53.405,12.845 56.754,26.237 58.373,17.927 			"/>
			<polygon fill="#FEF6B3" points="58.373,17.927 61.127,22.839 56.754,26.237 			"/>
			<polygon fill="#EABB9B" points="43.171,20.922 45.882,19.56 49.708,17.745 42.113,16.23 			"/>
			<polygon fill="#C0B5DA" points="42.113,16.23 41.098,19.063 43.171,20.922 			"/>
			<polygon fill="#FDD4B3" points="42.113,16.23 41.883,12.268 37.851,15.831 41.098,19.063 			"/>
			<polygon fill="#C26C47" points="49.708,17.745 52.298,19.702 49.544,21.448 			"/>
			<polygon fill="#EABB9B" points="42.113,16.23 46.317,13.186 41.883,12.268 			"/>
			<polygon fill="#F6DC8F" points="44.513,14.492 42.113,16.23 49.708,17.745 			"/>
			<polygon fill="#937775" points="46.317,13.186 49.708,17.745 44.513,14.492 			"/>
			<polygon fill="#E2927E" points="49.708,17.745 53.405,12.845 46.317,13.186 			"/>
			<polygon fill="#B4A18D" points="49.708,17.745 52.298,19.702 55.89,22.406 54.556,17.448 			"/>
			<polygon fill="#A1B0B5" points="53.405,12.845 49.708,17.745 54.556,17.448 			"/>
			<polygon fill="#A58483" points="52.298,19.702 56.754,26.237 55.89,22.406 			"/>
			<polygon fill="#886965" points="52.298,19.702 53.257,25.281 56.754,26.237 			"/>
			<polygon fill="#C0B5DA" points="54.431,33.881 51.866,42.545 57.65,39.077 			"/>
			<polygon fill="#B7A5BF" points="57.65,39.077 56.657,43.766 51.866,42.545 			"/>
			<polygon fill="#B7BCCD" points="56.657,43.766 59.467,42.545 57.65,39.077 			"/>
			<polygon fill="#B7A5BF" points="57.65,39.077 61.298,38.18 59.467,42.545 			"/>
			<polygon fill="#A1B0B5" points="61.298,38.18 58.285,35.453 57.65,39.077 			"/>
			<polygon fill="#B7BCCD" points="61.298,38.18 62.087,35.443 58.285,35.453 			"/>
			<polygon fill="#A1B0B5" points="62.087,35.443 58.978,31.495 58.285,35.453 			"/>
			<polygon fill="#E5D9EB" points="58.978,31.495 56.754,26.237 62.32,31.668 			"/>
			<polygon fill="#FDD4B3" points="58.978,31.495 62.087,35.443 62.32,31.668 			"/>
			<polygon fill="#E2D4CC" points="56.754,26.237 54.431,33.881 58.978,31.495 			"/>
			<polygon fill="#E9F3E3" points="56.754,26.237 61.127,22.839 62.32,31.668 			"/>
			<polygon fill="#D48A72" points="54.431,33.881 49.544,29.773 50.376,35.198 			"/>
			<polygon fill="#9F8D8D" points="49.544,29.773 45.974,30.116 50.376,35.198 			"/>
			<polygon fill="#B4A18D" points="45.974,30.116 45.562,40.327 43.341,34.905 			"/>
			<polygon fill="#A15935" points="50.376,35.198 48.522,41.421 45.562,40.327 			"/>
			<polygon fill="#C26C47" points="50.376,35.198 45.745,34.905 45.562,40.327 			"/>
			<polygon fill="#A58483" points="50.376,35.198 45.974,30.116 45.745,34.905 			"/>
			<polygon fill="#896059" points="50.376,35.198 51.866,42.545 48.522,41.421 			"/>
			<polygon fill="#A58483" points="50.376,35.198 54.431,33.881 51.866,42.545 			"/>
			<polygon fill="#8A979B" points="49.544,29.773 49.544,26.203 54.431,33.881 			"/>
			<polygon fill="#AA94B8" points="49.544,26.203 53.257,25.281 54.431,33.881 			"/>
			<polygon fill="#937775" points="53.257,25.281 49.544,21.448 49.544,26.203 			"/>
			<polygon fill="#AC7C46" points="45.882,19.56 46.776,23.35 49.544,26.203 			"/>
			<polygon fill="#AC7C46" points="45.882,19.56 49.708,17.745 49.544,21.448 			"/>
			<polygon fill="#D48A72" points="46.592,25.209 49.544,26.203 46.776,23.35 			"/>
			<polygon fill="#B78D8D" points="46.592,25.209 49.544,29.773 49.544,26.203 			"/>
			<polygon fill="#9F8D8D" points="41.883,12.268 41.368,6.969 38.354,12.378 			"/>
			<polygon fill="#E5D9EB" points="38.354,12.378 37.851,15.831 41.883,12.268 			"/>
			<polygon fill="#E2D4CC" points="41.883,12.268 49.118,9.694 41.368,6.969 			"/>
			<polygon fill="#C0B5DA" points="49.118,9.694 46.317,13.186 41.883,12.268 			"/>
			<polygon fill="#E8AB7E" points="53.405,12.845 49.118,9.694 46.317,13.186 			"/>
			<polygon fill="#B78D8D" points="45.562,40.327 48.141,44.778 43.533,40.583 			"/>
			<polygon fill="#A58483" points="43.533,40.583 42.518,45.324 48.141,44.778 			"/>
			<polygon fill="#947158" points="48.141,44.778 48.522,41.421 45.562,40.327 			"/>
			<polygon fill="#915A85" points="48.522,41.421 51.866,42.545 48.141,44.778 			"/>
			<polygon fill="#975E51" points="48.141,44.778 44.161,52.152 42.518,45.324 			"/>
			<polygon fill="#896059" points="42.518,45.324 40.968,49.809 44.161,52.152 			"/>
			<polygon fill="#69534D" points="48.141,44.778 49.148,49.221 44.161,52.152 			"/>
			<polygon fill="#69534D" points="49.148,49.221 50.691,53.073 49.148,56.793 			"/>
			<polygon fill="#454C4D" points="49.148,49.221 45.15,57.548 49.148,55.259 			"/>
			<polygon fill="#456B7C" points="49.148,55.259 46.35,59.391 45.15,57.548 			"/>
			<polygon fill="#603163" points="49.148,49.221 51.866,42.545 48.141,44.778 			"/>
			<polygon fill="#2C4854" points="44.161,52.152 45.15,57.548 49.148,49.221 			"/>
			<polygon fill="#743A18" points="40.968,49.809 45.15,57.548 44.161,52.152 			"/>
			<polygon fill="#6B3839" points="40.968,49.809 35.686,53.679 45.15,57.548 			"/>
			<polygon fill="#69534D" points="40.968,49.809 39.116,43.366 40.968,44.025 42.518,45.324 			"/>
			<polygon fill="#585857" points="49.148,49.221 52.994,46.786 51.866,42.545 			"/>
			<polygon fill="#3F5C57" points="52.994,46.786 50.691,53.073 49.148,49.221 			"/>
			<polygon fill="#886965" points="52.994,46.786 56.657,43.766 51.866,42.545 			"/>
			<polygon fill="#7C5247" points="52.994,46.786 53.684,50.188 50.691,53.073 			"/>
			<polygon fill="#765A85" points="56.657,43.766 56.657,46.588 52.994,46.786 			"/>
			<polygon fill="#9396C7" points="56.657,43.766 59.467,42.545 56.657,46.588 			"/>
			<polygon fill="#847357" points="52.994,46.786 56.657,46.588 53.684,50.188 			"/>
			<polygon fill="#743A18" points="45.15,57.548 40.584,60.919 40.037,55.458 			"/>
			<polygon fill="#7F4D3F" points="45.15,57.548 42.921,61.788 42.797,59.286 			"/>
			<polygon fill="#ED1C24" points="42.797,59.286 40.461,63.096 40.584,60.919 			"/>
			<polygon fill="#B9A393" points="39.665,21.817 35.686,18.893 35.686,21.724 			"/>
			<polygon fill="#FEF8CC" points="39.665,21.817 38.927,29.227 35.686,21.724 			"/>
			<polygon fill="#E9E9EA" points="35.686,21.724 35.686,28.432 38.927,29.227 			"/>
			<polygon fill="#FDFCE7" points="39.665,21.817 40.513,26.863 38.927,29.227 			"/>
			<polygon fill="#CFCAE5" points="38.927,29.227 38.452,30.587 35.686,28.432 			"/>
			<polygon fill="#C0B5DA" points="38.452,30.587 35.686,31.668 35.686,28.432 			"/>
			<polygon fill="#B7A5BF" points="38.927,29.227 40.885,32.52 38.452,30.587 			"/>
			<polygon fill="#A1B0B5" points="40.36,37.772 41.503,40.838 35.686,39.614 			"/>
			<polygon fill="#8A979B" points="41.503,40.838 38.927,42.315 35.686,39.614 			"/>
			<polygon fill="#454C4D" points="38.927,42.315 35.686,41.917 35.686,39.614 			"/>
			<polygon fill="#49312D" points="40.968,44.025 39.116,43.366 35.686,43.696 35.686,41.917 38.927,42.315 			"/>
			<polygon fill="#765A85" points="40.968,35.321 36.835,34.517 37.507,36.752 			"/>
			<polygon fill="#756260" points="37.507,36.752 35.686,39.614 35.686,37.204 			"/>
			<polygon fill="#585857" points="37.507,36.752 40.36,37.772 35.686,39.614 			"/>
			<polygon fill="#493163" points="38.452,30.587 40.885,32.52 40.968,35.321 36.835,34.517 37.507,36.752 35.686,37.204 
				35.686,31.668 			"/>
			<polygon fill="#765A46" points="37.507,36.752 40.968,35.321 40.36,37.772 			"/>
			<polygon fill="#456B7C" points="36.835,34.517 37.069,32.236 38.011,32.52 38.211,33.411 			"/>
			<polygon fill="#C0B5DA" points="41.098,19.063 37.851,15.831 39.665,21.817 			"/>
			<polygon fill="#A0836B" points="38.354,12.378 35.686,8.074 35.686,12.129 			"/>
			<polygon fill="#B9A393" points="38.354,12.378 41.368,6.969 35.686,8.074 			"/>
			<polygon fill="#D2D3D4" points="37.851,15.831 35.686,12.129 38.354,12.378 			"/>
			<polygon fill="#E9E9EA" points="37.851,15.831 35.686,18.893 35.686,12.129 			"/>
			<polygon fill="#E2D4CC" points="37.851,15.831 39.665,21.817 35.686,18.893 			"/>
			<polygon fill="#69534D" points="39.116,43.366 35.686,45.636 35.686,43.696 			"/>
			<polygon fill="#616156" points="39.116,43.366 35.686,45.636 40.968,49.809 			"/>
			<polygon fill="#454C4D" points="35.686,45.636 35.686,53.679 38.488,47.85 			"/>
			<polygon fill="#585857" points="38.488,47.85 40.968,49.809 35.686,53.679 			"/>
			<polygon fill="#6A4367" points="40.037,55.458 37.663,59.391 35.686,53.679 			"/>
			<polygon fill="#69534D" points="37.663,59.391 35.686,63.363 35.686,53.679 			"/>
			<polygon fill="#3A4F54" points="40.584,60.919 37.663,59.391 40.037,55.458 			"/>
		</g>
		<g>
			<g>
				<g>
					<polygon fill="#14331C" points="13.088,17.927 10.334,22.839 7.24,16.565 					"/>
					<polygon fill="#493163" points="12.151,12.022 13.088,17.927 18.056,12.845 					"/>
					<polygon fill="#49312D" points="7.24,16.565 8.091,13.413 13.088,17.927 					"/>
					<polygon fill="#3A4F54" points="8.091,13.413 12.151,12.022 13.088,17.927 					"/>
					<polygon fill="#526487" points="12.151,12.022 14.195,10.915 18.056,12.845 					"/>
					<polygon fill="#526487" points="8.091,13.413 5.167,9.098 12.151,12.022 					"/>
					<polygon fill="#737372" points="7.24,16.565 3.208,14.492 8.091,13.413 					"/>
					<polygon fill="#2A4A33" points="7.24,16.565 6.853,21.448 10.334,22.839 					"/>
					<polygon fill="#69534D" points="14.195,10.915 13.088,7.366 12.151,12.022 					"/>
					<polygon fill="#8A979B" points="5.167,9.098 8.659,5.578 12.151,12.022 					"/>
					<polygon fill="#A0836B" points="8.659,5.578 13.088,7.366 12.151,12.022 					"/>
					<polygon fill="#896043" points="13.088,7.366 16.381,10.915 14.195,10.915 					"/>
					<polygon fill="#756260" points="14.195,10.915 18.056,12.845 16.381,10.915 					"/>
					<polygon fill="#6E877F" points="5.167,9.098 3.208,14.492 8.091,13.413 					"/>
					<polygon fill="#B2967D" points="3.208,14.492 6.853,21.448 7.24,16.565 					"/>
					<polygon fill="#C0B5DA" points="5.167,9.098 3.118,10.289 3.208,14.492 					"/>
					<polygon fill="#CFCAE5" points="3.118,10.289 5.487,5.38 5.167,9.098 					"/>
					<polygon fill="#E5D9EB" points="5.487,5.38 8.659,5.578 5.167,9.098 					"/>
					<polygon fill="#E9E9EA" points="5.487,5.38 12.151,3.902 8.659,5.578 					"/>
					<polygon fill="#FEF8CC" points="12.151,3.902 13.088,7.366 8.659,5.578 					"/>
					<polygon fill="#E9F3E3" points="12.151,3.902 17.818,8.074 13.088,7.366 					"/>
					<polygon fill="#B8E2E4" points="17.818,8.074 16.381,10.915 13.088,7.366 					"/>
					<polygon fill="#A1B0B5" points="16.381,10.915 20.166,11.294 18.056,12.845 					"/>
					<polygon fill="#E9E9EA" points="16.381,10.915 21.078,7.193 20.166,11.294 					"/>
					<polygon fill="#937775" points="28.291,20.922 25.579,19.56 24.685,23.35 					"/>
					<polygon fill="#FDFCE7" points="17.818,8.074 21.078,7.193 16.381,10.915 					"/>
					<polygon fill="#493163" points="25.899,22.406 28.291,20.922 28.433,22.981 					"/>
					<polygon fill="#69534D" points="28.944,23.641 26.592,23.591 28.12,26.203 					"/>
					<polygon fill="#FEF8CC" points="21.078,7.193 22.343,9.694 20.166,11.294 					"/>
					<polygon fill="#69534D" points="28.291,20.922 30.363,23.35 28.413,22.7 					"/>
					<polygon fill="#603163" points="30.363,23.35 28.944,23.641 28.12,26.203 					"/>
					<polygon fill="#3A4F54" points="25.899,22.406 24.87,25.209 24.685,23.35 					"/>
					<polygon fill="#2C4854" points="25.899,22.406 28.12,26.203 24.87,25.209 					"/>
					<polygon fill="#3A4F54" points="28.413,22.7 28.944,23.641 30.363,23.35 					"/>
					<path fill="#49312D" d="M25.899,22.406c0,0-0.106,1.766,1.852,1.682c0,0,0.852-0.107,1.192-0.447c0,0-0.085-1.044-1.235-1.235
						C26.559,22.215,25.899,22.406,25.899,22.406z"/>
					<circle fill="#FDD4B3" cx="27.879" cy="22.981" r="0.241"/>
					<polygon fill="#765A85" points="28.291,20.922 31.797,21.817 30.363,23.35 					"/>
					<polygon fill="#D48A72" points="28.291,20.922 30.363,19.063 31.797,21.817 					"/>
					<polygon fill="#B78D8D" points="28.12,26.203 30.949,26.863 31.797,21.817 30.363,23.35 					"/>
					<polygon fill="#E8AB7E" points="28.12,26.203 29.668,27.942 30.949,26.863 					"/>
					<polygon fill="#B4A18D" points="28.12,26.203 25.487,30.17 29.668,27.942 					"/>
					<polygon fill="#B78D8D" points="24.87,25.209 25.487,30.17 28.12,26.203 					"/>
					<polygon fill="#A5839B" points="24.87,25.209 21.917,29.773 25.487,30.17 					"/>
					<polygon fill="#E8AB7E" points="29.668,27.942 28.12,34.905 25.487,30.116 					"/>
					<polygon fill="#B9A393" points="31.797,21.817 35.776,18.893 35.776,21.724 					"/>
					<polygon fill="#FEF8CC" points="31.797,21.817 32.535,29.227 35.776,21.724 					"/>
					<polygon fill="#E9E9EA" points="35.776,21.724 35.776,28.432 32.535,29.227 					"/>
					<polygon fill="#E9F3E3" points="32.535,29.227 29.668,27.942 30.949,26.863 					"/>
					<polygon fill="#FDFCE7" points="31.797,21.817 30.949,26.863 32.535,29.227 					"/>
					<polygon fill="#CFCAE5" points="32.535,29.227 33.01,30.587 35.776,28.432 					"/>
					<polygon fill="#C0B5DA" points="33.01,30.587 35.776,31.668 35.776,28.432 					"/>
					<polygon fill="#B7A5BF" points="32.535,29.227 30.576,32.52 33.01,30.587 					"/>
					<polygon fill="#FDD4B3" points="30.576,32.52 28.12,34.905 29.668,27.942 					"/>
					<polygon fill="#FEF8CC" points="29.668,27.942 32.535,29.227 30.576,32.52 					"/>
					<polygon fill="#E9E9EA" points="30.576,32.52 30.493,35.321 28.12,34.905 					"/>
					<polygon fill="#E5D9EB" points="28.12,34.905 25.899,40.327 28.702,38.652 					"/>
					<polygon fill="#C0B5DA" points="30.493,35.321 28.407,36.752 31.101,37.772 					"/>
					<polygon fill="#D2D3D4" points="30.493,35.321 28.407,36.752 28.12,34.905 					"/>
					<polygon fill="#A1B0B5" points="31.101,37.772 29.959,40.838 35.776,39.614 					"/>
					<polygon fill="#8A979B" points="29.959,40.838 32.535,42.315 35.776,39.614 					"/>
					<polygon fill="#8A97CB" points="29.959,40.838 28.944,45.324 32.535,42.315 					"/>
					<polygon fill="#B7BCCD" points="25.899,40.327 29.959,40.838 28.702,38.652 					"/>
					<polygon fill="#C3C3C7" points="31.101,37.772 28.702,38.652 29.959,40.838 					"/>
					<polygon fill="#CFCAE5" points="28.407,36.752 28.702,38.652 31.101,37.772 					"/>
					<polygon fill="#C0B5DA" points="29.959,40.838 27.929,40.583 28.944,45.324 					"/>
					<polygon fill="#454C4D" points="32.535,42.315 35.776,41.917 35.776,39.614 					"/>
					<polygon fill="#49312D" points="30.493,44.025 32.345,43.366 35.776,43.696 35.776,41.917 32.535,42.315 					"/>
					<polygon fill="#765A85" points="30.493,35.321 34.627,34.517 33.955,36.752 					"/>
					<polygon fill="#756260" points="33.955,36.752 35.776,39.614 35.776,37.204 					"/>
					<polygon fill="#585857" points="33.955,36.752 31.101,37.772 35.776,39.614 					"/>
					<polygon fill="#493163" points="33.01,30.587 30.576,32.52 30.493,35.321 34.627,34.517 33.955,36.752 35.776,37.204 
						35.776,31.668 					"/>
					<polygon fill="#765A46" points="33.955,36.752 30.493,35.321 31.101,37.772 					"/>
					<polygon fill="#456B7C" points="34.627,34.517 34.393,32.236 33.451,32.52 33.251,33.411 					"/>
					<polygon fill="#756260" points="25.579,19.56 21.917,21.448 21.917,26.203 					"/>
					<polygon fill="#C0B5DA" points="30.363,19.063 33.611,15.831 31.797,21.817 					"/>
					<polygon fill="#C3C3C7" points="17.03,33.881 12.484,31.495 13.812,39.077 					"/>
					<polygon fill="#8A979B" points="17.03,33.881 14.708,26.237 18.205,25.281 					"/>
					<polygon fill="#975E51" points="18.205,25.281 19.163,19.702 21.917,21.448 					"/>
					<polygon fill="#EFDFCE" points="18.056,12.845 14.708,26.237 13.088,17.927 					"/>
					<polygon fill="#FEF6B3" points="13.088,17.927 10.334,22.839 14.708,26.237 					"/>
					<polygon fill="#EABB9B" points="28.291,20.922 25.579,19.56 21.753,17.745 29.348,16.23 					"/>
					<polygon fill="#C0B5DA" points="29.348,16.23 30.363,19.063 28.291,20.922 					"/>
					<polygon fill="#FDD4B3" points="29.348,16.23 29.579,12.268 33.611,15.831 30.363,19.063 					"/>
					<polygon fill="#C26C47" points="21.753,17.745 19.163,19.702 21.917,21.448 					"/>
					<polygon fill="#EABB9B" points="29.348,16.23 25.145,13.186 29.579,12.268 					"/>
					<polygon fill="#F6DC8F" points="26.948,14.492 29.348,16.23 21.753,17.745 					"/>
					<polygon fill="#937775" points="25.145,13.186 21.753,17.745 26.948,14.492 					"/>
					<polygon fill="#E2927E" points="21.753,17.745 18.056,12.845 25.145,13.186 					"/>
					<polygon fill="#B4A18D" points="21.753,17.745 19.163,19.702 15.572,22.406 16.905,17.448 					"/>
					<polygon fill="#A1B0B5" points="18.056,12.845 21.753,17.745 16.905,17.448 					"/>
					<polygon fill="#A58483" points="19.163,19.702 14.708,26.237 15.572,22.406 					"/>
					<polygon fill="#886965" points="19.163,19.702 18.205,25.281 14.708,26.237 					"/>
					<polygon fill="#C0B5DA" points="17.03,33.881 19.595,42.545 13.812,39.077 					"/>
					<polygon fill="#B7A5BF" points="13.812,39.077 14.804,43.766 19.595,42.545 					"/>
					<polygon fill="#B7BCCD" points="14.804,43.766 11.995,42.545 13.812,39.077 					"/>
					<polygon fill="#B7A5BF" points="13.812,39.077 10.164,38.18 11.995,42.545 					"/>
					<polygon fill="#A1B0B5" points="10.164,38.18 13.177,35.453 13.812,39.077 					"/>
					<polygon fill="#B7BCCD" points="10.164,38.18 9.374,35.443 13.177,35.453 					"/>
					<polygon fill="#A1B0B5" points="9.374,35.443 12.484,31.495 13.177,35.453 					"/>
					<polygon fill="#E5D9EB" points="12.484,31.495 14.708,26.237 9.141,31.668 					"/>
					<polygon fill="#FDD4B3" points="12.484,31.495 9.374,35.443 9.141,31.668 					"/>
					<polygon fill="#E2D4CC" points="14.708,26.237 17.03,33.881 12.484,31.495 					"/>
					<polygon fill="#E9F3E3" points="14.708,26.237 10.334,22.839 9.141,31.668 					"/>
					<polygon fill="#D48A72" points="17.03,33.881 21.917,29.773 21.085,35.198 					"/>
					<polygon fill="#9F8D8D" points="21.917,29.773 25.487,30.116 21.085,35.198 					"/>
					<polygon fill="#B4A18D" points="25.487,30.116 25.899,40.327 28.12,34.905 					"/>
					<polygon fill="#A15935" points="21.085,35.198 22.939,41.421 25.899,40.327 					"/>
					<polygon fill="#C26C47" points="21.085,35.198 25.716,34.905 25.899,40.327 					"/>
					<polygon fill="#A58483" points="21.085,35.198 25.487,30.116 25.716,34.905 					"/>
					<polygon fill="#896059" points="21.085,35.198 19.595,42.545 22.939,41.421 					"/>
					<polygon fill="#A58483" points="21.085,35.198 17.03,33.881 19.595,42.545 					"/>
					<polygon fill="#8A979B" points="21.917,29.773 21.917,26.203 17.03,33.881 					"/>
					<polygon fill="#AA94B8" points="21.917,26.203 18.205,25.281 17.03,33.881 					"/>
					<polygon fill="#937775" points="18.205,25.281 21.917,21.448 21.917,26.203 					"/>
					<polygon fill="#AC7C46" points="25.579,19.56 24.685,23.35 21.917,26.203 					"/>
					<polygon fill="#AC7C46" points="25.579,19.56 21.753,17.745 21.917,21.448 					"/>
					<polygon fill="#D48A72" points="24.87,25.209 21.917,26.203 24.685,23.35 					"/>
					<polygon fill="#B78D8D" points="24.87,25.209 21.917,29.773 21.917,26.203 					"/>
					<polygon fill="#9F8D8D" points="29.579,12.268 30.093,6.969 33.107,12.378 					"/>
					<polygon fill="#A0836B" points="33.107,12.378 35.776,8.074 35.776,12.129 					"/>
					<polygon fill="#B9A393" points="33.107,12.378 30.093,6.969 35.776,8.074 					"/>
					<polygon fill="#E5D9EB" points="33.107,12.378 33.611,15.831 29.579,12.268 					"/>
					<polygon fill="#D2D3D4" points="33.611,15.831 35.776,12.129 33.107,12.378 					"/>
					<polygon fill="#E9E9EA" points="33.611,15.831 35.776,18.893 35.776,12.129 					"/>
					<polygon fill="#E2D4CC" points="33.611,15.831 31.797,21.817 35.776,18.893 					"/>
					<polygon fill="#E2D4CC" points="29.579,12.268 22.343,9.694 30.093,6.969 					"/>
					<polygon fill="#C0B5DA" points="22.343,9.694 25.145,13.186 29.579,12.268 					"/>
					<polygon fill="#E8AB7E" points="18.056,12.845 22.343,9.694 25.145,13.186 					"/>
					<polygon fill="#B78D8D" points="25.899,40.327 23.32,44.778 27.929,40.583 					"/>
					<polygon fill="#A58483" points="27.929,40.583 28.944,45.324 23.32,44.778 					"/>
					<polygon fill="#947158" points="23.32,44.778 22.939,41.421 25.899,40.327 					"/>
					<polygon fill="#915A85" points="22.939,41.421 19.595,42.545 23.32,44.778 					"/>
					<polygon fill="#975E51" points="23.32,44.778 27.3,52.152 28.944,45.324 					"/>
					<polygon fill="#896059" points="28.944,45.324 30.493,49.809 27.3,52.152 					"/>
					<polygon fill="#69534D" points="23.32,44.778 22.313,49.221 27.3,52.152 					"/>
					<polygon fill="#69534D" points="22.313,49.221 20.771,53.073 22.313,56.793 					"/>
					<polygon fill="#454C4D" points="22.313,49.221 26.312,57.548 22.313,55.259 					"/>
					<polygon fill="#456B7C" points="22.313,55.259 25.111,59.391 26.312,57.548 					"/>
					<polygon fill="#603163" points="22.313,49.221 19.595,42.545 23.32,44.778 					"/>
					<polygon fill="#2C4854" points="27.3,52.152 26.312,57.548 22.313,49.221 					"/>
					<polygon fill="#743A18" points="30.493,49.809 26.312,57.548 27.3,52.152 					"/>
					<polygon fill="#6B3839" points="30.493,49.809 35.776,53.679 26.312,57.548 					"/>
					<polygon fill="#69534D" points="30.493,49.809 32.345,43.366 30.493,44.025 28.944,45.324 					"/>
					<polygon fill="#69534D" points="32.345,43.366 35.776,45.636 35.776,43.696 					"/>
					<polygon fill="#616156" points="32.345,43.366 35.776,45.636 30.493,49.809 					"/>
					<polygon fill="#454C4D" points="35.776,45.636 35.776,53.679 32.973,47.85 					"/>
					<polygon fill="#585857" points="32.973,47.85 30.493,49.809 35.776,53.679 					"/>
					<polygon fill="#585857" points="22.313,49.221 18.468,46.786 19.595,42.545 					"/>
					<polygon fill="#3F5C57" points="18.468,46.786 20.771,53.073 22.313,49.221 					"/>
					<polygon fill="#886965" points="18.468,46.786 14.804,43.766 19.595,42.545 					"/>
					<polygon fill="#7C5247" points="18.468,46.786 17.777,50.188 20.771,53.073 					"/>
					<polygon fill="#765A85" points="14.804,43.766 14.804,46.588 18.468,46.786 					"/>
					<polygon fill="#9396C7" points="14.804,43.766 11.995,42.545 14.804,46.588 					"/>
					<polygon fill="#847357" points="18.468,46.786 14.804,46.588 17.777,50.188 					"/>
					<polygon fill="#743A18" points="26.312,57.548 30.878,60.919 31.425,55.458 					"/>
					<polygon fill="#6A4367" points="31.425,55.458 33.798,59.391 35.776,53.679 					"/>
					<polygon fill="#69534D" points="33.798,59.391 35.776,63.363 35.776,53.679 					"/>
					<polygon fill="#3A4F54" points="30.878,60.919 33.798,59.391 31.425,55.458 					"/>
					<polygon fill="#585857" points="30.878,60.919 34.273,62.753 33.798,59.391 					"/>
					<polygon fill="#7F4D3F" points="26.312,57.548 28.541,61.788 28.665,59.286 					"/>
					<polygon fill="#765A85" points="28.665,59.286 31,63.096 30.878,60.919 					"/>
				</g>
				<g>
					<polygon fill="#C0B5DA" points="66.294,9.098 68.344,10.289 68.253,14.492 					"/>
					<polygon fill="#CFCAE5" points="68.344,10.289 65.974,5.38 66.294,9.098 					"/>
				</g>
			</g>
		</g>
	</g>
</g>
<g>
	<polygon opacity="0.3" fill="#BE1E2D" points="37.029,32.677 37.029,39.448 37.447,39.125 37.602,39.161 37.913,38.851 
		38.08,38.803 38.223,38.648 38.641,38.481 39.012,38.075 39.725,36.865 39.797,36.74 40.03,36.373 40.11,36.23 40.173,35.782 
		39.871,34.683 39.382,34.134 39.513,33.919 39.465,33.405 39.597,32.773 38.809,31.71 37.949,32.665 37.555,32.856 	"/>
	<path opacity="0.3" fill="#BE1E2D" d="M38.652,35.196l0.597,0.299l-0.107-0.203l0.382-0.06l0.179-0.322l-0.155-0.239l0.334-0.027
		l-0.465-0.522l0.018-0.03l-0.042-0.041l-0.502-0.084l-0.37-0.502l-0.227-0.036l-0.502-0.322l-0.728-0.086v2.301l0.502,0.138v-0.036
		c0.048,0.06,0.382,0.478,0.382,0.478L38.652,35.196z"/>
	<polygon opacity="0.3" fill="#BE1E2D" points="38.629,38.29 39.346,37.227 39.155,36.677 39.621,35.722 38.618,35.209 
		37.913,35.913 37.805,35.806 37.805,36.104 37.961,36.355 37.961,36.874 37.029,37.387 37.029,39.182 37.997,38.373 37.973,38.684 
			"/>
	<polygon opacity="0.3" fill="#BE1E2D" points="38.534,35.101 38.301,34.653 37.8,34.385 37.405,34.725 37.352,35.065 
		37.453,36.182 37.734,36.462 37.734,36.821 37.268,36.558 37.041,36.558 37.029,36.7 37.029,37.696 37.471,37.716 37.853,37.143 
		37.841,36.367 37.579,36.128 37.531,35.435 37.901,35.662 	"/>
	<polygon opacity="0.3" fill="#BE1E2D" points="37.555,32.856 37.029,32.677 37.029,34.665 37.364,35.161 37.352,34.719 
		37.316,34.492 37.949,32.665 	"/>
	<polygon opacity="0.3" fill="#BE1E2D" points="37.029,34.492 37.316,34.492 37.626,33.537 37.029,32.997 	"/>
	<polygon opacity="0.48" fill="#95A0AC" points="35.486,43.415 35.725,43.415 35.62,41.69 35.486,41.526 	"/>
	<polygon opacity="0.3" fill="#BE1E2D" points="37.399,38.087 37.618,37.824 37.916,37.197 37.153,37.319 37.029,37.387 
		37.029,38.087 	"/>
	<polygon opacity="0.3" fill="#BE1E2D" points="37.029,37.997 37.376,37.997 37.576,37.734 37.791,37.188 37.029,37.251 	"/>
	<polygon opacity="0.3" fill="#BE1E2D" points="37.871,37.188 38.095,36.973 38.092,36.713 37.961,36.874 37.817,37.167 
		37.477,37.663 37.029,37.651 37.029,37.788 37.483,37.74 	"/>
	<path opacity="0.3" fill="#BE1E2D" d="M37.268,36.701h-0.239v0.481c0.177-0.016,0.537-0.048,0.537-0.039l-0.119-0.263
		L37.268,36.701z"/>
	<polygon opacity="0.3" fill="#BE1E2D" points="38.247,33.453 38.492,33.489 38.641,33.704 38.414,33.095 38.689,32.928 
		38.689,32.498 38.856,31.937 39.286,32.354 38.809,31.71 37.949,32.665 37.788,33.149 	"/>
	<path opacity="0.3" fill="#BE1E2D" d="M38.629,33.671l-0.214-0.576l0.275-0.167v-0.43l0.167-0.561l0.418,0.788l-0.31,0.263
		l0.155,0.131l-0.179,0.143l0.263,0.215l-0.305,0.508l-0.041-0.007L38.629,33.671z"/>
	<line opacity="0.3" fill="#BE1E2D" x1="39.203" y1="33.477" x2="38.94" y2="33.262"/>
	<polygon opacity="0.3" fill="#BE1E2D" points="38.988,33.489 38.725,33.274 38.904,33.131 38.749,32.999 39.059,32.737 
		38.777,32.204 38.689,32.498 38.689,32.928 38.414,33.095 38.629,33.671 38.767,33.857 	"/>
	<polygon opacity="0.3" fill="#BE1E2D" points="37.029,38.524 37.399,38.087 37.029,38.091 	"/>
	<polygon opacity="0.3" fill="#BE1E2D" points="37.029,38.091 37.029,38.524 37.399,38.087 	"/>
	<polygon opacity="0.3" fill="#BE1E2D" points="39.214,36.846 39.155,36.677 38.283,37.985 	"/>
	<polygon opacity="0.3" fill="#BE1E2D" points="38.543,33.441 38.414,33.095 38.689,32.928 38.689,32.498 38.856,31.937 
		39.286,32.354 38.828,31.736 38.522,32.474 38.594,32.82 38.271,33.011 38.492,33.489 38.534,33.453 	"/>
	<path opacity="0.3" fill="#BE1E2D" d="M39.668,34.922l-0.155-0.239l0.334-0.027l-0.465-0.522l0.018-0.03l-0.042-0.041l-0.46-0.077
		l0,0c0,0-0.546,0.668-0.591,0.674c0,0,0.224,0.478,0.251,0.478c0.004,0-0.03,0.102,0.01,0.122l0.05-0.05l0.597,0.299l-0.107-0.203
		l0.382-0.06L39.668,34.922z"/>
	<polygon opacity="0.3" fill="#BE1E2D" points="37.447,39.125 37.602,39.161 37.913,38.851 37.93,38.846 38.023,38.298 
		37.445,39.127 	"/>
	<polygon opacity="0.3" fill="#BE1E2D" points="39.914,34.84 39.922,35.836 40.039,36.337 40.047,36.341 40.11,36.23 40.173,35.782 
		40.071,35.41 	"/>
	<polygon opacity="0.3" fill="#BE1E2D" points="39.807,36.745 39.621,35.722 39.268,36.454 39.725,36.865 39.797,36.74 	"/>
	<polygon opacity="0.48" fill="#ACB8C5" points="35.486,43.981 35.832,43.929 35.729,43.563 35.725,43.559 35.486,43.559 	"/>
	<polygon opacity="0.3" fill="#BE1E2D" points="37.029,37.071 37.02,37.441 37.039,37.62 37.328,37.501 37.495,37.382 
		37.567,37.143 37.376,37.071 	"/>
	<polygon opacity="0.3" fill="#BE1E2D" points="37.226,37.316 37.256,37.412 37.426,37.431 37.495,37.382 37.507,37.343 	"/>
	<path opacity="0.3" fill="#BE1E2D" d="M37.519,37.239c-0.024,0.012-0.31,0.048-0.31,0.048l0.024,0.066l0.248,0.04l0.015-0.011
		l0.026-0.087L37.519,37.239z"/>
	<polygon fill="#FFFFFF" points="35.486,43.803 35.486,43.929 35.832,43.929 	"/>
	<g opacity="0.3">
		<path fill="#BE1E2D" d="M37.853,34.727l-0.124,0.295c0,0,0.075,0.268,0.075,0.283l0.339-0.609L37.853,34.727z"/>
		<polygon fill="#BE1E2D" points="37.822,35.269 37.766,35.014 37.883,34.773 38.096,34.716 38.308,34.768 38.411,34.98 		"/>
		<polygon fill="#BE1E2D" points="37.801,35.306 37.874,35.037 38.081,34.903 38.371,34.975 38.216,35.265 37.926,35.306 		"/>
		<polygon opacity="0.48" fill="#BE1E2D" points="37.514,34.631 38.304,34.659 38.301,34.653 37.8,34.385 		"/>
		<g>
			<path fill="#BE1E2D" d="M38.15,34.947l-0.105-0.026l-0.146,0.095c-0.01,0.022-0.016,0.047-0.016,0.073
				c0,0.094,0.076,0.171,0.171,0.171s0.171-0.076,0.171-0.171C38.225,35.029,38.195,34.977,38.15,34.947z"/>
			<path fill="#BE1E2D" d="M38.124,34.951l-0.082-0.021l-0.115,0.074c-0.008,0.017-0.013,0.037-0.013,0.057
				c0,0.074,0.06,0.134,0.134,0.134c0.074,0,0.134-0.06,0.134-0.134C38.183,35.016,38.16,34.976,38.124,34.951z"/>
			<circle fill="#BE1E2D" cx="38.044" cy="35.059" r="0.096"/>
			<circle fill="#BE1E2D" cx="38.128" cy="35.04" r="0.057"/>
			<path opacity="0.37" fill="#BE1E2D" d="M38.182,34.975c-0.009-0.011-0.02-0.02-0.032-0.028l-0.105-0.026l-0.146,0.095
				c-0.01,0.022-0.016,0.047-0.016,0.073l0.193-0.131L38.182,34.975z"/>
			<circle opacity="0.35" fill="#BE1E2D" cx="38.04" cy="35.169" r="0.062"/>
		</g>
	</g>
</g>
<path opacity="0.3" fill="#BE1E2D" d="M39.921,35.722"/>
<polygon opacity="0.3" fill="#BE1E2D" points="58.52,18.039 61.274,22.951 64.368,16.677 "/>
<polygon opacity="0.3" fill="#BE1E2D" points="59.457,12.134 58.52,18.039 53.552,12.958 "/>
<polygon opacity="0.3" fill="#BE1E2D" points="64.368,16.677 63.517,13.525 58.52,18.039 "/>
<polygon opacity="0.3" fill="#BE1E2D" points="63.517,13.525 59.457,12.134 58.52,18.039 "/>
<polygon opacity="0.3" fill="#BE1E2D" points="59.457,12.134 57.413,11.027 53.552,12.958 "/>
<polygon opacity="0.3" fill="#BE1E2D" points="63.517,13.525 66.441,9.21 59.457,12.134 "/>
<polygon opacity="0.3" fill="#BE1E2D" points="64.368,16.677 68.4,14.604 63.517,13.525 "/>
<polygon opacity="0.3" fill="#BE1E2D" points="64.368,16.677 64.755,21.56 61.274,22.951 "/>
<polygon opacity="0.3" fill="#BE1E2D" points="57.413,11.027 58.52,7.478 59.457,12.134 "/>
<polygon opacity="0.3" fill="#BE1E2D" points="66.441,9.21 62.949,5.69 59.457,12.134 "/>
<polygon opacity="0.3" fill="#BE1E2D" points="62.949,5.69 58.52,7.478 59.457,12.134 "/>
<polygon opacity="0.3" fill="#BE1E2D" points="58.52,7.478 55.227,11.027 57.413,11.027 "/>
<polygon opacity="0.3" fill="#BE1E2D" points="57.413,11.027 53.552,12.958 55.227,11.027 "/>
<polygon opacity="0.3" fill="#BE1E2D" points="66.441,9.21 68.4,14.604 63.517,13.525 "/>
<polygon opacity="0.3" fill="#BE1E2D" points="68.4,14.604 64.755,21.56 64.368,16.677 "/>
<polygon opacity="0.3" fill="#BE1E2D" points="66.121,5.493 62.949,5.69 66.441,9.21 "/>
<polygon opacity="0.3" fill="#BE1E2D" points="66.121,5.493 59.457,4.015 62.949,5.69 "/>
<polygon opacity="0.3" fill="#BE1E2D" points="59.457,4.015 58.52,7.478 62.949,5.69 "/>
<polygon opacity="0.3" fill="#BE1E2D" points="59.457,4.015 53.79,8.187 58.52,7.478 "/>
<polygon opacity="0.3" fill="#BE1E2D" points="53.79,8.187 55.227,11.027 58.52,7.478 "/>
<polygon opacity="0.3" fill="#BE1E2D" points="55.227,11.027 51.442,11.406 53.552,12.958 "/>
<polygon opacity="0.3" fill="#BE1E2D" points="55.227,11.027 50.529,7.306 51.442,11.406 "/>
<polygon opacity="0.3" fill="#BE1E2D" points="43.317,21.035 46.028,19.672 46.923,23.462 "/>
<polygon opacity="0.3" fill="#BE1E2D" points="53.79,8.187 50.529,7.306 55.227,11.027 "/>
<polygon opacity="0.3" fill="#BE1E2D" points="45.709,22.518 43.317,21.035 43.175,23.093 "/>
<polygon opacity="0.3" fill="#BE1E2D" points="42.664,23.753 45.016,23.703 43.487,26.315 "/>
<polygon opacity="0.3" fill="#BE1E2D" points="50.529,7.306 49.264,9.806 51.442,11.406 "/>
<polygon opacity="0.3" fill="#BE1E2D" points="43.317,21.035 41.245,23.462 43.194,22.812 "/>
<polygon opacity="0.3" fill="#BE1E2D" points="41.245,23.462 42.664,23.753 43.487,26.315 "/>
<polygon opacity="0.3" fill="#BE1E2D" points="45.709,22.518 46.738,25.322 46.923,23.462 "/>
<polygon opacity="0.3" fill="#BE1E2D" points="45.709,22.518 43.487,26.315 46.738,25.322 "/>
<polygon opacity="0.3" fill="#BE1E2D" points="43.194,22.812 42.664,23.753 41.245,23.462 "/>
<path opacity="0.3" fill="#BE1E2D" d="M45.709,22.518c0,0,0.106,1.766-1.852,1.682c0,0-0.852-0.107-1.192-0.447
	c0,0,0.086-1.044,1.235-1.235C45.048,22.327,45.709,22.518,45.709,22.518z"/>
<circle opacity="0.3" fill="#BE1E2D" cx="43.729" cy="23.093" r="0.241"/>
<polygon opacity="0.3" fill="#BE1E2D" points="43.317,21.035 39.811,21.929 41.245,23.462 "/>
<polygon opacity="0.3" fill="#BE1E2D" points="43.317,21.035 41.245,19.175 39.811,21.929 "/>
<polygon opacity="0.3" fill="#BE1E2D" points="43.487,26.315 40.659,26.975 39.811,21.929 41.245,23.462 "/>
<polygon opacity="0.3" fill="#BE1E2D" points="43.487,26.315 41.94,28.054 40.659,26.975 "/>
<polygon opacity="0.3" fill="#BE1E2D" points="43.487,26.315 46.12,30.282 41.94,28.054 "/>
<polygon opacity="0.3" fill="#BE1E2D" points="46.738,25.322 46.12,30.282 43.487,26.315 "/>
<polygon opacity="0.3" fill="#BE1E2D" points="46.738,25.322 49.691,29.885 46.12,30.282 "/>
<polygon opacity="0.3" fill="#BE1E2D" points="41.94,28.054 43.487,35.017 46.12,30.229 "/>
<polygon opacity="0.3" fill="#BE1E2D" points="39.073,29.339 41.94,28.054 40.659,26.975 "/>
<polygon opacity="0.3" fill="#BE1E2D" points="41.032,32.632 43.487,35.017 41.94,28.054 "/>
<polygon opacity="0.3" fill="#BE1E2D" points="41.94,28.054 39.073,29.339 41.032,32.632 "/>
<polygon opacity="0.3" fill="#BE1E2D" points="41.032,32.632 41.115,35.433 43.487,35.017 "/>
<polygon opacity="0.3" fill="#BE1E2D" points="43.487,35.017 45.709,40.439 42.905,38.764 "/>
<polygon opacity="0.3" fill="#BE1E2D" points="41.115,35.433 43.201,36.864 40.507,37.884 "/>
<polygon opacity="0.3" fill="#BE1E2D" points="41.115,35.433 43.201,36.864 43.487,35.017 "/>
<polygon opacity="0.3" fill="#BE1E2D" points="41.649,40.95 42.664,45.436 39.073,42.427 "/>
<polygon opacity="0.3" fill="#BE1E2D" points="45.709,40.439 41.649,40.95 42.905,38.764 "/>
<polygon opacity="0.3" fill="#BE1E2D" points="40.507,37.884 42.905,38.764 41.649,40.95 "/>
<polygon opacity="0.3" fill="#BE1E2D" points="43.201,36.864 42.905,38.764 40.507,37.884 "/>
<polygon opacity="0.3" fill="#BE1E2D" points="41.649,40.95 43.679,40.695 42.664,45.436 "/>
<polygon opacity="0.3" fill="#BE1E2D" points="46.028,19.672 49.691,21.56 49.691,26.315 "/>
<polygon opacity="0.3" fill="#BE1E2D" points="54.578,33.994 59.124,31.607 57.796,39.189 "/>
<polygon opacity="0.3" fill="#BE1E2D" points="54.578,33.994 56.9,26.349 53.403,25.393 "/>
<polygon opacity="0.3" fill="#BE1E2D" points="53.403,25.393 52.444,19.814 49.691,21.56 "/>
<polygon opacity="0.3" fill="#BE1E2D" points="53.552,12.958 56.9,26.349 58.52,18.039 "/>
<polygon opacity="0.3" fill="#BE1E2D" points="58.52,18.039 61.274,22.951 56.9,26.349 "/>
<polygon opacity="0.3" fill="#BE1E2D" points="43.317,21.035 46.028,19.672 49.855,17.858 42.259,16.342 "/>
<polygon opacity="0.3" fill="#BE1E2D" points="42.259,16.342 41.245,19.175 43.317,21.035 "/>
<polygon opacity="0.3" fill="#BE1E2D" points="42.259,16.342 42.029,12.38 37.997,15.943 41.245,19.175 "/>
<polygon opacity="0.3" fill="#BE1E2D" points="49.855,17.858 52.444,19.814 49.691,21.56 "/>
<polygon opacity="0.3" fill="#BE1E2D" points="42.259,16.342 46.463,13.298 42.029,12.38 "/>
<polygon opacity="0.3" fill="#BE1E2D" points="44.66,14.604 42.259,16.342 49.855,17.858 "/>
<polygon opacity="0.3" fill="#BE1E2D" points="46.463,13.298 49.855,17.858 44.66,14.604 "/>
<polygon opacity="0.3" fill="#BE1E2D" points="49.855,17.858 53.552,12.958 46.463,13.298 "/>
<polygon opacity="0.3" fill="#BE1E2D" points="49.855,17.858 52.444,19.814 56.036,22.518 54.702,17.56 "/>
<polygon opacity="0.3" fill="#BE1E2D" points="53.552,12.958 49.855,17.858 54.702,17.56 "/>
<polygon opacity="0.3" fill="#BE1E2D" points="52.444,19.814 56.9,26.349 56.036,22.518 "/>
<polygon opacity="0.3" fill="#BE1E2D" points="52.444,19.814 53.403,25.393 56.9,26.349 "/>
<polygon opacity="0.3" fill="#BE1E2D" points="54.578,33.994 52.013,42.657 57.796,39.189 "/>
<polygon opacity="0.3" fill="#BE1E2D" points="57.796,39.189 56.804,43.878 52.013,42.657 "/>
<polygon opacity="0.3" fill="#BE1E2D" points="56.804,43.878 59.613,42.657 57.796,39.189 "/>
<polygon opacity="0.3" fill="#BE1E2D" points="57.796,39.189 61.444,38.293 59.613,42.657 "/>
<polygon opacity="0.3" fill="#BE1E2D" points="61.444,38.293 58.431,35.565 57.796,39.189 "/>
<polygon opacity="0.3" fill="#BE1E2D" points="61.444,38.293 62.234,35.555 58.431,35.565 "/>
<polygon opacity="0.3" fill="#BE1E2D" points="62.234,35.555 59.124,31.607 58.431,35.565 "/>
<polygon opacity="0.3" fill="#BE1E2D" points="59.124,31.607 56.9,26.349 62.466,31.78 "/>
<polygon opacity="0.3" fill="#BE1E2D" points="59.124,31.607 62.234,35.555 62.466,31.78 "/>
<polygon opacity="0.3" fill="#BE1E2D" points="56.9,26.349 54.578,33.994 59.124,31.607 "/>
<polygon opacity="0.3" fill="#BE1E2D" points="56.9,26.349 61.274,22.951 62.466,31.78 "/>
<polygon opacity="0.3" fill="#BE1E2D" points="54.578,33.994 49.691,29.885 50.522,35.31 "/>
<polygon opacity="0.3" fill="#BE1E2D" points="49.691,29.885 46.12,30.229 50.522,35.31 "/>
<polygon opacity="0.3" fill="#BE1E2D" points="46.12,30.229 45.709,40.439 43.487,35.017 "/>
<polygon opacity="0.3" fill="#BE1E2D" points="50.522,35.31 48.668,41.533 45.709,40.439 "/>
<polygon opacity="0.3" fill="#BE1E2D" points="50.522,35.31 45.891,35.017 45.709,40.439 "/>
<polygon opacity="0.3" fill="#BE1E2D" points="50.522,35.31 46.12,30.229 45.891,35.017 "/>
<polygon opacity="0.3" fill="#BE1E2D" points="50.522,35.31 52.013,42.657 48.668,41.533 "/>
<polygon opacity="0.3" fill="#BE1E2D" points="50.522,35.31 54.578,33.994 52.013,42.657 "/>
<polygon opacity="0.3" fill="#BE1E2D" points="49.691,29.885 49.691,26.315 54.578,33.994 "/>
<polygon opacity="0.3" fill="#BE1E2D" points="49.691,26.315 53.403,25.393 54.578,33.994 "/>
<polygon opacity="0.3" fill="#BE1E2D" points="53.403,25.393 49.691,21.56 49.691,26.315 "/>
<polygon opacity="0.3" fill="#BE1E2D" points="46.028,19.672 46.923,23.462 49.691,26.315 "/>
<polygon opacity="0.3" fill="#BE1E2D" points="46.028,19.672 49.855,17.858 49.691,21.56 "/>
<polygon opacity="0.3" fill="#BE1E2D" points="46.738,25.322 49.691,26.315 46.923,23.462 "/>
<polygon opacity="0.3" fill="#BE1E2D" points="46.738,25.322 49.691,29.885 49.691,26.315 "/>
<polygon opacity="0.3" fill="#BE1E2D" points="42.029,12.38 41.514,7.081 38.501,12.491 "/>
<polygon opacity="0.3" fill="#BE1E2D" points="38.501,12.491 37.997,15.943 42.029,12.38 "/>
<polygon opacity="0.3" fill="#BE1E2D" points="42.029,12.38 49.264,9.806 41.514,7.081 "/>
<polygon opacity="0.3" fill="#BE1E2D" points="49.264,9.806 46.463,13.298 42.029,12.38 "/>
<polygon opacity="0.3" fill="#BE1E2D" points="53.552,12.958 49.264,9.806 46.463,13.298 "/>
<polygon opacity="0.3" fill="#BE1E2D" points="45.709,40.439 48.288,44.89 43.679,40.695 "/>
<polygon opacity="0.3" fill="#BE1E2D" points="43.679,40.695 42.664,45.436 48.288,44.89 "/>
<polygon opacity="0.3" fill="#BE1E2D" points="48.288,44.89 48.668,41.533 45.709,40.439 "/>
<polygon opacity="0.3" fill="#BE1E2D" points="48.668,41.533 52.013,42.657 48.288,44.89 "/>
<polygon opacity="0.3" fill="#BE1E2D" points="48.288,44.89 44.307,52.264 42.664,45.436 "/>
<polygon opacity="0.3" fill="#BE1E2D" points="42.664,45.436 41.115,49.922 44.307,52.264 "/>
<polygon opacity="0.3" fill="#BE1E2D" points="48.288,44.89 49.294,49.333 44.307,52.264 "/>
<polygon opacity="0.3" fill="#BE1E2D" points="49.294,49.333 50.837,53.185 49.294,56.906 "/>
<polygon opacity="0.3" fill="#BE1E2D" points="49.294,49.333 45.296,57.661 49.294,55.371 "/>
<polygon opacity="0.3" fill="#BE1E2D" points="49.294,55.371 46.497,59.503 45.296,57.661 "/>
<polygon opacity="0.3" fill="#BE1E2D" points="49.294,49.333 52.013,42.657 48.288,44.89 "/>
<polygon opacity="0.3" fill="#BE1E2D" points="44.307,52.264 45.296,57.661 49.294,49.333 "/>
<polygon opacity="0.3" fill="#BE1E2D" points="41.115,49.922 45.296,57.661 44.307,52.264 "/>
<polyline opacity="0.3" fill="#BE1E2D" points="35.832,53.791 45.296,57.661 41.115,49.922 35.832,53.791 "/>
<polygon opacity="0.3" fill="#BE1E2D" points="41.115,49.922 39.262,43.478 41.115,44.138 42.664,45.436 "/>
<polygon opacity="0.3" fill="#BE1E2D" points="49.294,49.333 53.14,46.898 52.013,42.657 "/>
<polygon opacity="0.3" fill="#BE1E2D" points="53.14,46.898 50.837,53.185 49.294,49.333 "/>
<polygon opacity="0.3" fill="#BE1E2D" points="53.14,46.898 56.804,43.878 52.013,42.657 "/>
<polygon opacity="0.3" fill="#BE1E2D" points="53.14,46.898 53.831,50.301 50.837,53.185 "/>
<polygon opacity="0.3" fill="#BE1E2D" points="56.804,43.878 56.804,46.7 53.14,46.898 "/>
<polygon opacity="0.3" fill="#BE1E2D" points="56.804,43.878 59.613,42.657 56.804,46.7 "/>
<polygon opacity="0.3" fill="#BE1E2D" points="53.14,46.898 56.804,46.7 53.831,50.301 "/>
<polygon opacity="0.3" fill="#BE1E2D" points="45.296,57.661 40.73,61.032 40.183,55.57 "/>
<polygon opacity="0.3" fill="#BE1E2D" points="45.296,57.661 43.067,61.9 42.943,59.398 "/>
<polygon opacity="0.3" fill="#BE1E2D" points="42.943,59.398 40.607,63.208 40.73,61.032 "/>
<polyline opacity="0.3" fill="#BE1E2D" points="35.832,21.837 39.811,21.929 35.832,19.005 "/>
<polyline opacity="0.3" fill="#BE1E2D" points="35.832,21.837 39.811,21.929 39.073,29.339 35.832,21.837 "/>
<polyline opacity="0.3" fill="#BE1E2D" points="35.832,28.544 39.073,29.339 35.832,21.837 "/>
<polygon opacity="0.3" fill="#BE1E2D" points="39.811,21.929 40.659,26.975 39.073,29.339 "/>
<polyline opacity="0.3" fill="#BE1E2D" points="35.832,28.544 39.073,29.339 38.598,30.699 35.832,28.544 "/>
<polyline opacity="0.3" fill="#BE1E2D" points="35.832,28.544 38.598,30.699 35.832,31.78 "/>
<polygon opacity="0.3" fill="#BE1E2D" points="39.073,29.339 41.032,32.632 38.598,30.699 "/>
<polyline opacity="0.3" fill="#BE1E2D" points="35.832,39.726 40.507,37.884 41.649,40.95 35.832,39.726 "/>
<polyline opacity="0.3" fill="#BE1E2D" points="35.832,39.726 41.649,40.95 39.073,42.427 35.832,39.726 "/>
<polyline opacity="0.3" fill="#BE1E2D" points="35.832,39.726 39.073,42.427 35.832,42.03 "/>
<polyline opacity="0.3" fill="#BE1E2D" points="35.832,42.03 39.073,42.427 41.115,44.138 39.262,43.478 35.832,43.808 "/>
<polygon opacity="0.3" fill="#BE1E2D" points="41.115,35.433 36.981,34.63 37.653,36.864 "/>
<polyline opacity="0.3" fill="#BE1E2D" points="35.832,37.316 37.653,36.864 35.832,39.726 "/>
<polyline opacity="0.3" fill="#BE1E2D" points="35.832,39.726 37.653,36.864 40.507,37.884 35.832,39.726 "/>
<polyline opacity="0.3" fill="#BE1E2D" points="35.832,31.78 38.598,30.699 41.032,32.632 41.115,35.433 36.981,34.63 
	37.653,36.864 35.832,37.316 "/>
<polygon opacity="0.3" fill="#BE1E2D" points="37.653,36.864 41.115,35.433 40.507,37.884 "/>
<polygon opacity="0.3" fill="#BE1E2D" points="36.981,34.63 37.215,32.348 38.157,32.632 38.357,33.524 "/>
<polygon opacity="0.3" fill="#BE1E2D" points="41.245,19.175 37.997,15.943 39.811,21.929 "/>
<polyline opacity="0.3" fill="#BE1E2D" points="35.832,12.241 38.501,12.491 35.832,8.187 "/>
<polyline opacity="0.3" fill="#BE1E2D" points="35.832,8.187 38.501,12.491 41.514,7.081 35.832,8.187 "/>
<polyline opacity="0.3" fill="#BE1E2D" points="35.832,12.241 38.501,12.491 37.997,15.943 35.832,12.241 "/>
<polyline opacity="0.3" fill="#BE1E2D" points="35.832,12.241 37.997,15.943 35.832,19.005 "/>
<polyline opacity="0.3" fill="#BE1E2D" points="35.832,19.005 37.997,15.943 39.811,21.929 35.832,19.005 "/>
<polyline opacity="0.3" fill="#BE1E2D" points="35.832,43.808 39.262,43.478 35.832,45.748 "/>
<polyline opacity="0.3" fill="#BE1E2D" points="35.832,45.748 41.115,49.922 39.262,43.478 35.832,45.748 "/>
<polyline opacity="0.3" fill="#BE1E2D" points="35.832,53.791 38.635,47.962 35.832,45.748 "/>
<polyline opacity="0.3" fill="#BE1E2D" points="35.832,53.791 38.635,47.962 41.115,49.922 35.832,53.791 "/>
<polyline opacity="0.3" fill="#BE1E2D" points="35.832,53.791 40.183,55.57 37.809,59.503 35.832,53.791 "/>
<polyline opacity="0.3" fill="#BE1E2D" points="35.832,53.791 37.809,59.503 35.832,63.475 "/>
<polygon opacity="0.3" fill="#BE1E2D" points="40.73,61.032 37.809,59.503 40.183,55.57 "/>
<g>
	<polygon opacity="0.3" fill="#BE1E2D" points="66.441,9.21 68.49,10.402 68.4,14.604 	"/>
	<polygon opacity="0.3" fill="#BE1E2D" points="68.49,10.402 66.121,5.493 66.441,9.21 	"/>
</g>
<defs>
	<filter id="Adobe_OpacityMaskFilter_1_" filterUnits="userSpaceOnUse" x="35.849" y="4.071" width="32.568" height="59.46">
		<feFlood  style="flood-color:white;flood-opacity:1" result="back"/>
		<feBlend  in="SourceGraphic" in2="back" mode="normal"/>
	</filter>
</defs>
<mask maskUnits="userSpaceOnUse" x="35.849" y="4.071" width="32.568" height="59.46" id="SVGID_2_">
	<g filter="url(#Adobe_OpacityMaskFilter_1_)">
		<polygon fill="#585857" points="40.746,61.088 37.351,62.922 37.826,59.559 		"/>
	</g>
</mask>
<g opacity="0.7" mask="url(#SVGID_2_)">
	<g>
		<polygon opacity="0.48" fill="#BE1E2D" points="37.046,32.733 37.046,39.504 37.464,39.182 37.619,39.217 37.929,38.907 
			38.097,38.859 38.24,38.704 38.658,38.537 39.028,38.131 39.742,36.922 39.813,36.796 40.046,36.429 40.127,36.286 40.189,35.838 
			39.888,34.739 39.398,34.19 39.53,33.975 39.482,33.462 39.613,32.829 38.825,31.766 37.965,32.721 37.571,32.912 		"/>
		<path opacity="0.48" fill="#BE1E2D" d="M38.668,35.252l0.597,0.299l-0.107-0.203l0.382-0.06l0.179-0.322l-0.155-0.239l0.334-0.027
			l-0.465-0.522l0.018-0.03l-0.042-0.041l-0.502-0.084l-0.37-0.502l-0.227-0.036l-0.502-0.322l-0.728-0.086v2.301l0.502,0.138
			v-0.036c0.048,0.06,0.382,0.478,0.382,0.478L38.668,35.252z"/>
		<polygon opacity="0.3" fill="#BE1E2D" points="38.646,38.346 39.362,37.283 39.171,36.734 39.637,35.778 38.634,35.265 
			37.929,35.969 37.822,35.862 37.822,36.16 37.977,36.411 37.977,36.931 37.046,37.443 37.046,39.238 38.013,38.429 37.989,38.74 
					"/>
		<polygon fill="#BE1E2D" points="38.55,35.157 38.318,34.709 37.816,34.441 37.422,34.781 37.368,35.121 37.47,36.238 
			37.75,36.519 37.75,36.877 37.285,36.614 37.058,36.614 37.046,36.756 37.046,37.752 37.488,37.772 37.87,37.199 37.858,36.423 
			37.595,36.184 37.547,35.492 37.918,35.719 		"/>
		<polygon opacity="0.48" fill="#BE1E2D" points="37.571,32.912 37.046,32.733 37.046,34.721 37.38,35.217 37.368,34.775 
			37.332,34.548 37.965,32.721 		"/>
		<polygon opacity="0.48" fill="#BE1E2D" points="37.046,34.548 37.332,34.548 37.643,33.593 37.046,33.053 		"/>
		<polygon opacity="0.48" fill="#BE1E2D" points="37.046,36.614 37.285,36.614 37.18,34.889 37.046,34.725 		"/>
		<polygon opacity="0.48" fill="#BE1E2D" points="37.416,38.143 37.635,37.88 37.932,37.253 37.169,37.375 37.046,37.443 
			37.046,38.143 		"/>
		<polygon fill="#BE1E2D" points="37.046,38.053 37.392,38.053 37.592,37.79 37.807,37.244 37.046,37.307 		"/>
		<polygon fill="#BE1E2D" points="37.888,37.244 38.112,37.029 38.109,36.769 37.977,36.931 37.834,37.223 37.494,37.719 
			37.046,37.707 37.046,37.844 37.5,37.796 		"/>
		<path fill="#BE1E2D" d="M37.285,36.757h-0.239v0.481c0.177-0.016,0.537-0.048,0.537-0.039l-0.119-0.263L37.285,36.757z"/>
		<polygon opacity="0.48" fill="#BE1E2D" points="38.264,33.509 38.509,33.545 38.658,33.76 38.431,33.151 38.706,32.984 
			38.706,32.554 38.873,31.993 39.303,32.41 38.825,31.766 37.965,32.721 37.804,33.205 		"/>
		<path fill="#BE1E2D" d="M38.645,33.727l-0.214-0.576l0.275-0.167v-0.43l0.167-0.561l0.418,0.788l-0.31,0.263l0.155,0.131
			l-0.179,0.143l0.263,0.215l-0.305,0.508l-0.041-0.007L38.645,33.727z"/>
		<line fill="#BE1E2D" x1="39.219" y1="33.533" x2="38.956" y2="33.318"/>
		<polygon opacity="0.48" fill="#BE1E2D" points="39.004,33.545 38.742,33.33 38.921,33.187 38.765,33.056 39.076,32.793 
			38.793,32.26 38.706,32.554 38.706,32.984 38.431,33.151 38.645,33.727 38.783,33.913 		"/>
		<polygon opacity="0.48" fill="#BE1E2D" points="37.046,38.58 37.416,38.143 37.046,38.147 		"/>
		<polygon opacity="0.48" fill="#BE1E2D" points="37.046,38.147 37.046,38.58 37.416,38.143 		"/>
		<polygon opacity="0.48" fill="#BE1E2D" points="39.23,36.902 39.171,36.734 38.3,38.041 		"/>
		<polygon opacity="0.37" fill="#BE1E2D" points="38.56,33.497 38.431,33.151 38.706,32.984 38.706,32.554 38.873,31.993 
			39.303,32.41 38.844,31.792 38.538,32.53 38.61,32.876 38.288,33.067 38.509,33.545 38.55,33.509 		"/>
		<path opacity="0.3" fill="#BE1E2D" d="M39.685,34.978l-0.155-0.239l0.334-0.027l-0.465-0.522l0.018-0.03l-0.042-0.041l-0.46-0.077
			l0,0c0,0-0.546,0.668-0.591,0.674c0,0,0.224,0.478,0.251,0.478c0.004,0-0.03,0.102,0.01,0.122l0.05-0.05l0.597,0.299l-0.107-0.203
			l0.382-0.06L39.685,34.978z"/>
		<polygon fill="#BE1E2D" points="37.464,39.182 37.619,39.217 37.929,38.907 37.946,38.902 38.04,38.355 37.462,39.183 		"/>
		<polygon opacity="0.48" fill="#BE1E2D" points="39.931,34.896 39.939,35.892 40.055,36.393 40.064,36.398 40.127,36.286 
			40.189,35.838 40.087,35.466 		"/>
		<polygon fill="#BE1E2D" points="39.824,36.801 39.637,35.778 39.285,36.51 39.742,36.922 39.813,36.796 		"/>
		<polygon opacity="0.48" fill="#BE1E2D" points="37.046,37.18 37.392,37.128 37.289,36.762 37.285,36.757 37.046,36.757 		"/>
		<polygon fill="#BE1E2D" points="37.046,37.128 37.037,37.498 37.055,37.676 37.344,37.558 37.512,37.438 37.583,37.199 
			37.392,37.128 		"/>
		<polygon opacity="0.48" fill="#BE1E2D" points="37.243,37.372 37.273,37.468 37.443,37.487 37.512,37.438 37.523,37.4 		"/>
		<path fill="#BE1E2D" d="M37.535,37.295c-0.024,0.012-0.31,0.048-0.31,0.048l0.024,0.066l0.248,0.04l0.015-0.011l0.026-0.087
			L37.535,37.295z"/>
		<polygon fill="#BE1E2D" points="37.046,37.002 37.046,37.128 37.392,37.128 		"/>
		<g>
			<path fill="#BE1E2D" d="M37.87,34.783l-0.124,0.295c0,0,0.075,0.268,0.075,0.283l0.339-0.609L37.87,34.783z"/>
			<polygon fill="#BE1E2D" points="37.838,35.325 37.782,35.07 37.9,34.829 38.112,34.772 38.324,34.824 38.428,35.036 			"/>
			<polygon fill="#BE1E2D" points="37.818,35.362 37.89,35.093 38.098,34.959 38.387,35.031 38.232,35.321 37.942,35.362 			"/>
			<polygon opacity="0.48" fill="#BE1E2D" points="37.531,34.687 38.321,34.715 38.318,34.709 37.816,34.441 			"/>
			<g>
				<path fill="#BE1E2D" d="M38.166,35.003l-0.105-0.026l-0.146,0.095c-0.01,0.022-0.016,0.047-0.016,0.073
					c0,0.094,0.076,0.171,0.171,0.171s0.171-0.076,0.171-0.171C38.241,35.085,38.212,35.034,38.166,35.003z"/>
				<path fill="#BE1E2D" d="M38.141,35.008l-0.082-0.021l-0.115,0.074c-0.008,0.017-0.013,0.037-0.013,0.057
					c0,0.074,0.06,0.134,0.134,0.134c0.074,0,0.134-0.06,0.134-0.134C38.199,35.072,38.176,35.032,38.141,35.008z"/>
				<circle fill="#BE1E2D" cx="38.061" cy="35.115" r="0.096"/>
				<circle fill="#BE1E2D" cx="38.145" cy="35.096" r="0.057"/>
				<path opacity="0.37" fill="#BE1E2D" d="M38.198,35.031c-0.009-0.011-0.02-0.02-0.032-0.028l-0.105-0.026l-0.146,0.095
					c-0.01,0.022-0.016,0.047-0.016,0.073l0.193-0.131L38.198,35.031z"/>
				<circle opacity="0.35" fill="#BE1E2D" cx="38.057" cy="35.225" r="0.062"/>
			</g>
		</g>
	</g>
	<polygon opacity="0.37" fill="#BE1E2D" points="37.081,34.773 37.344,34.489 37.046,33.053 37.046,34.721 	"/>
	<path fill="#BE1E2D" d="M39.938,35.778"/>
	<polygon fill="#BE1E2D" points="58.536,18.096 61.29,23.007 64.385,16.733 	"/>
	<polygon fill="#BE1E2D" points="59.473,12.19 58.536,18.096 53.568,13.014 	"/>
	<polygon fill="#BE1E2D" points="64.385,16.733 63.533,13.581 58.536,18.096 	"/>
	<polygon fill="#BE1E2D" points="63.533,13.581 59.473,12.19 58.536,18.096 	"/>
	<polygon fill="#BE1E2D" points="59.473,12.19 57.429,11.083 53.568,13.014 	"/>
	<polygon fill="#BE1E2D" points="63.533,13.581 66.457,9.266 59.473,12.19 	"/>
	<polygon fill="#BE1E2D" points="64.385,16.733 68.416,14.66 63.533,13.581 	"/>
	<polygon fill="#BE1E2D" points="64.385,16.733 64.771,21.616 61.29,23.007 	"/>
	<polygon fill="#BE1E2D" points="57.429,11.083 58.536,7.534 59.473,12.19 	"/>
	<polygon fill="#BE1E2D" points="66.457,9.266 62.965,5.746 59.473,12.19 	"/>
	<polygon fill="#BE1E2D" points="62.965,5.746 58.536,7.534 59.473,12.19 	"/>
	<polygon fill="#BE1E2D" points="58.536,7.534 55.243,11.083 57.429,11.083 	"/>
	<polygon fill="#BE1E2D" points="57.429,11.083 53.568,13.014 55.243,11.083 	"/>
	<polygon fill="#BE1E2D" points="66.457,9.266 68.416,14.66 63.533,13.581 	"/>
	<polygon fill="#BE1E2D" points="68.416,14.66 64.771,21.616 64.385,16.733 	"/>
	<polygon fill="#BE1E2D" points="66.137,5.549 62.965,5.746 66.457,9.266 	"/>
	<polygon fill="#BE1E2D" points="66.137,5.549 59.473,4.071 62.965,5.746 	"/>
	<polygon fill="#BE1E2D" points="59.473,4.071 58.536,7.534 62.965,5.746 	"/>
	<polygon fill="#BE1E2D" points="59.473,4.071 53.806,8.243 58.536,7.534 	"/>
	<polygon fill="#BE1E2D" points="53.806,8.243 55.243,11.083 58.536,7.534 	"/>
	<polygon fill="#BE1E2D" points="55.243,11.083 51.458,11.463 53.568,13.014 	"/>
	<polygon fill="#BE1E2D" points="55.243,11.083 50.546,7.362 51.458,11.463 	"/>
	<polygon fill="#BE1E2D" points="43.333,21.091 46.045,19.728 46.939,23.518 	"/>
	<polygon fill="#BE1E2D" points="53.806,8.243 50.546,7.362 55.243,11.083 	"/>
	<polygon fill="#BE1E2D" points="45.725,22.574 43.333,21.091 43.191,23.149 	"/>
	<polygon fill="#BE1E2D" points="42.681,23.809 45.032,23.759 43.504,26.371 	"/>
	<polygon fill="#BE1E2D" points="50.546,7.362 49.281,9.862 51.458,11.463 	"/>
	<polygon fill="#BE1E2D" points="43.333,21.091 41.261,23.518 43.211,22.869 	"/>
	<polygon fill="#BE1E2D" points="41.261,23.518 42.681,23.809 43.504,26.371 	"/>
	<polygon fill="#BE1E2D" points="45.725,22.574 46.755,25.378 46.939,23.518 	"/>
	<polygon fill="#BE1E2D" points="45.725,22.574 43.504,26.371 46.755,25.378 	"/>
	<polygon fill="#BE1E2D" points="43.211,22.869 42.681,23.809 41.261,23.518 	"/>
	<path fill="#BE1E2D" d="M45.725,22.574c0,0,0.106,1.766-1.852,1.682c0,0-0.852-0.107-1.192-0.447c0,0,0.086-1.044,1.235-1.235
		C45.065,22.383,45.725,22.574,45.725,22.574z"/>
	<circle fill="#BE1E2D" cx="43.745" cy="23.149" r="0.241"/>
	<polygon fill="#BE1E2D" points="43.333,21.091 39.827,21.985 41.261,23.518 	"/>
	<polygon fill="#BE1E2D" points="43.333,21.091 41.261,19.231 39.827,21.985 	"/>
	<polygon fill="#BE1E2D" points="43.504,26.371 40.675,27.031 39.827,21.985 41.261,23.518 	"/>
	<polygon fill="#BE1E2D" points="43.504,26.371 41.957,28.11 40.675,27.031 	"/>
	<polygon fill="#BE1E2D" points="43.504,26.371 46.137,30.338 41.957,28.11 	"/>
	<polygon fill="#BE1E2D" points="46.755,25.378 46.137,30.338 43.504,26.371 	"/>
	<polygon fill="#BE1E2D" points="46.755,25.378 49.707,29.941 46.137,30.338 	"/>
	<polygon fill="#BE1E2D" points="41.957,28.11 43.504,35.073 46.137,30.285 	"/>
	<polygon fill="#BE1E2D" points="39.089,29.395 41.957,28.11 40.675,27.031 	"/>
	<polygon fill="#BE1E2D" points="41.048,32.688 43.504,35.073 41.957,28.11 	"/>
	<polygon fill="#BE1E2D" points="41.957,28.11 39.089,29.395 41.048,32.688 	"/>
	<polygon fill="#BE1E2D" points="41.048,32.688 41.131,35.489 43.504,35.073 	"/>
	<polygon fill="#BE1E2D" points="43.504,35.073 45.725,40.496 42.922,38.821 	"/>
	<polygon fill="#BE1E2D" points="41.131,35.489 43.217,36.92 40.523,37.94 	"/>
	<polygon fill="#BE1E2D" points="41.131,35.489 43.217,36.92 43.504,35.073 	"/>
	<polygon fill="#BE1E2D" points="41.665,41.006 42.681,45.492 39.089,42.483 	"/>
	<polygon fill="#BE1E2D" points="45.725,40.496 41.665,41.006 42.922,38.821 	"/>
	<polygon fill="#BE1E2D" points="40.523,37.94 42.922,38.821 41.665,41.006 	"/>
	<polygon fill="#BE1E2D" points="43.217,36.92 42.922,38.821 40.523,37.94 	"/>
	<polygon fill="#BE1E2D" points="41.665,41.006 43.695,40.751 42.681,45.492 	"/>
	<polygon fill="#BE1E2D" points="46.045,19.728 49.707,21.616 49.707,26.371 	"/>
	<polygon fill="#BE1E2D" points="54.594,34.05 59.141,31.663 57.812,39.245 	"/>
	<polygon fill="#BE1E2D" points="54.594,34.05 56.917,26.405 53.42,25.449 	"/>
	<polygon fill="#BE1E2D" points="53.42,25.449 52.461,19.87 49.707,21.616 	"/>
	<polygon fill="#BE1E2D" points="53.568,13.014 56.917,26.405 58.536,18.096 	"/>
	<polygon fill="#BE1E2D" points="58.536,18.096 61.29,23.007 56.917,26.405 	"/>
	<polygon fill="#BE1E2D" points="43.333,21.091 46.045,19.728 49.871,17.914 42.276,16.398 	"/>
	<polygon fill="#BE1E2D" points="42.276,16.398 41.261,19.231 43.333,21.091 	"/>
	<polygon fill="#BE1E2D" points="42.276,16.398 42.045,12.436 38.014,15.999 41.261,19.231 	"/>
	<polygon fill="#BE1E2D" points="49.871,17.914 52.461,19.87 49.707,21.616 	"/>
	<polygon fill="#BE1E2D" points="42.276,16.398 46.479,13.354 42.045,12.436 	"/>
	<polygon fill="#BE1E2D" points="44.676,14.66 42.276,16.398 49.871,17.914 	"/>
	<polygon fill="#BE1E2D" points="46.479,13.354 49.871,17.914 44.676,14.66 	"/>
	<polygon fill="#BE1E2D" points="49.871,17.914 53.568,13.014 46.479,13.354 	"/>
	<polygon fill="#BE1E2D" points="49.871,17.914 52.461,19.87 56.052,22.574 54.719,17.616 	"/>
	<polygon fill="#BE1E2D" points="53.568,13.014 49.871,17.914 54.719,17.616 	"/>
	<polygon fill="#BE1E2D" points="52.461,19.87 56.917,26.405 56.052,22.574 	"/>
	<polygon fill="#BE1E2D" points="52.461,19.87 53.42,25.449 56.917,26.405 	"/>
	<polygon fill="#BE1E2D" points="54.594,34.05 52.029,42.713 57.812,39.245 	"/>
	<polygon fill="#BE1E2D" points="57.812,39.245 56.82,43.934 52.029,42.713 	"/>
	<polygon fill="#BE1E2D" points="56.82,43.934 59.63,42.713 57.812,39.245 	"/>
	<polygon fill="#BE1E2D" points="57.812,39.245 61.461,38.349 59.63,42.713 	"/>
	<polygon fill="#BE1E2D" points="61.461,38.349 58.447,35.621 57.812,39.245 	"/>
	<polygon fill="#BE1E2D" points="61.461,38.349 62.25,35.611 58.447,35.621 	"/>
	<polygon fill="#BE1E2D" points="62.25,35.611 59.141,31.663 58.447,35.621 	"/>
	<polygon fill="#BE1E2D" points="59.141,31.663 56.917,26.405 62.483,31.837 	"/>
	<polygon fill="#BE1E2D" points="59.141,31.663 62.25,35.611 62.483,31.837 	"/>
	<polygon fill="#BE1E2D" points="56.917,26.405 54.594,34.05 59.141,31.663 	"/>
	<polygon fill="#BE1E2D" points="56.917,26.405 61.29,23.007 62.483,31.837 	"/>
	<polygon fill="#BE1E2D" points="54.594,34.05 49.707,29.941 50.539,35.367 	"/>
	<polygon fill="#BE1E2D" points="49.707,29.941 46.137,30.285 50.539,35.367 	"/>
	<polygon fill="#BE1E2D" points="46.137,30.285 45.725,40.496 43.504,35.073 	"/>
	<polygon fill="#BE1E2D" points="50.539,35.367 48.685,41.589 45.725,40.496 	"/>
	<polygon fill="#BE1E2D" points="50.539,35.367 45.908,35.073 45.725,40.496 	"/>
	<polygon fill="#BE1E2D" points="50.539,35.367 46.137,30.285 45.908,35.073 	"/>
	<polygon fill="#BE1E2D" points="50.539,35.367 52.029,42.713 48.685,41.589 	"/>
	<polygon fill="#BE1E2D" points="50.539,35.367 54.594,34.05 52.029,42.713 	"/>
	<polygon fill="#BE1E2D" points="49.707,29.941 49.707,26.371 54.594,34.05 	"/>
	<polygon fill="#BE1E2D" points="49.707,26.371 53.42,25.449 54.594,34.05 	"/>
	<polygon fill="#BE1E2D" points="53.42,25.449 49.707,21.616 49.707,26.371 	"/>
	<polygon fill="#BE1E2D" points="46.045,19.728 46.939,23.518 49.707,26.371 	"/>
	<polygon fill="#BE1E2D" points="46.045,19.728 49.871,17.914 49.707,21.616 	"/>
	<polygon fill="#BE1E2D" points="46.755,25.378 49.707,26.371 46.939,23.518 	"/>
	<polygon fill="#BE1E2D" points="46.755,25.378 49.707,29.941 49.707,26.371 	"/>
	<polygon fill="#BE1E2D" points="42.045,12.436 41.531,7.137 38.517,12.547 	"/>
	<polygon fill="#BE1E2D" points="38.517,12.547 38.014,15.999 42.045,12.436 	"/>
	<polygon fill="#BE1E2D" points="42.045,12.436 49.281,9.862 41.531,7.137 	"/>
	<polygon fill="#BE1E2D" points="49.281,9.862 46.479,13.354 42.045,12.436 	"/>
	<polygon fill="#BE1E2D" points="53.568,13.014 49.281,9.862 46.479,13.354 	"/>
	<polygon fill="#BE1E2D" points="45.725,40.496 48.304,44.947 43.695,40.751 	"/>
	<polygon fill="#BE1E2D" points="43.695,40.751 42.681,45.492 48.304,44.947 	"/>
	<polygon fill="#BE1E2D" points="48.304,44.947 48.685,41.589 45.725,40.496 	"/>
	<polygon fill="#BE1E2D" points="48.685,41.589 52.029,42.713 48.304,44.947 	"/>
	<polygon fill="#BE1E2D" points="48.304,44.947 44.324,52.32 42.681,45.492 	"/>
	<polygon fill="#BE1E2D" points="42.681,45.492 41.131,49.978 44.324,52.32 	"/>
	<polygon fill="#BE1E2D" points="48.304,44.947 49.311,49.39 44.324,52.32 	"/>
	<polygon fill="#BE1E2D" points="49.311,49.39 50.854,53.241 49.311,56.962 	"/>
	<polygon fill="#BE1E2D" points="49.311,49.39 45.313,57.717 49.311,55.427 	"/>
	<polygon fill="#BE1E2D" points="49.311,55.427 46.513,59.559 45.313,57.717 	"/>
	<polygon fill="#BE1E2D" points="49.311,49.39 52.029,42.713 48.304,44.947 	"/>
	<polygon fill="#BE1E2D" points="44.324,52.32 45.313,57.717 49.311,49.39 	"/>
	<polygon fill="#BE1E2D" points="41.131,49.978 45.313,57.717 44.324,52.32 	"/>
	<polygon fill="#BE1E2D" points="41.131,49.978 35.849,53.847 45.313,57.717 	"/>
	<polygon fill="#BE1E2D" points="41.131,49.978 39.279,43.534 41.131,44.194 42.681,45.492 	"/>
	<polygon fill="#BE1E2D" points="49.311,49.39 53.157,46.954 52.029,42.713 	"/>
	<polygon fill="#BE1E2D" points="53.157,46.954 50.854,53.241 49.311,49.39 	"/>
	<polygon fill="#BE1E2D" points="53.157,46.954 56.82,43.934 52.029,42.713 	"/>
	<polygon fill="#BE1E2D" points="53.157,46.954 53.847,50.357 50.854,53.241 	"/>
	<polygon fill="#BE1E2D" points="56.82,43.934 56.82,46.756 53.157,46.954 	"/>
	<polygon fill="#BE1E2D" points="56.82,43.934 59.63,42.713 56.82,46.756 	"/>
	<polygon fill="#BE1E2D" points="53.157,46.954 56.82,46.756 53.847,50.357 	"/>
	<polygon fill="#BE1E2D" points="45.313,57.717 40.746,61.088 40.199,55.626 	"/>
	<polygon fill="#BE1E2D" points="45.313,57.717 43.083,61.956 42.96,59.454 	"/>
	<polygon fill="#BE1E2D" points="42.96,59.454 40.624,63.264 40.746,61.088 	"/>
	<polygon fill="#BE1E2D" points="39.827,21.985 35.849,19.061 35.849,21.893 	"/>
	<polygon fill="#BE1E2D" points="39.827,21.985 39.089,29.395 35.849,21.893 	"/>
	<polygon fill="#BE1E2D" points="35.849,21.893 35.849,28.6 39.089,29.395 	"/>
	<polygon fill="#BE1E2D" points="39.827,21.985 40.675,27.031 39.089,29.395 	"/>
	<polygon fill="#BE1E2D" points="39.089,29.395 38.615,30.755 35.849,28.6 	"/>
	<polygon fill="#BE1E2D" points="38.615,30.755 35.849,31.837 35.849,28.6 	"/>
	<polygon fill="#BE1E2D" points="39.089,29.395 41.048,32.688 38.615,30.755 	"/>
	<polygon fill="#BE1E2D" points="40.523,37.94 41.665,41.006 35.849,39.783 	"/>
	<polygon fill="#BE1E2D" points="41.665,41.006 39.089,42.483 35.849,39.783 	"/>
	<polygon fill="#BE1E2D" points="39.089,42.483 35.849,42.086 35.849,39.783 	"/>
	<polygon fill="#BE1E2D" points="41.131,44.194 39.279,43.534 35.849,43.864 35.849,42.086 39.089,42.483 	"/>
	<polygon fill="#BE1E2D" points="41.131,35.489 36.997,34.686 37.67,36.92 	"/>
	<polygon fill="#BE1E2D" points="37.67,36.92 35.849,39.783 35.849,37.372 	"/>
	<polygon fill="#BE1E2D" points="37.67,36.92 40.523,37.94 35.849,39.783 	"/>
	<polygon fill="#BE1E2D" points="38.615,30.755 41.048,32.688 41.131,35.489 36.997,34.686 37.67,36.92 35.849,37.372 
		35.849,31.837 	"/>
	<polygon fill="#BE1E2D" points="37.67,36.92 41.131,35.489 40.523,37.94 	"/>
	<polygon fill="#BE1E2D" points="36.997,34.686 37.232,32.404 38.174,32.688 38.373,33.58 	"/>
	<polygon fill="#BE1E2D" points="41.261,19.231 38.014,15.999 39.827,21.985 	"/>
	<polygon fill="#BE1E2D" points="38.517,12.547 35.849,8.243 35.849,12.297 	"/>
	<polygon fill="#BE1E2D" points="38.517,12.547 41.531,7.137 35.849,8.243 	"/>
	<polygon fill="#BE1E2D" points="38.014,15.999 35.849,12.297 38.517,12.547 	"/>
	<polygon fill="#BE1E2D" points="38.014,15.999 35.849,19.061 35.849,12.297 	"/>
	<polygon fill="#BE1E2D" points="38.014,15.999 39.827,21.985 35.849,19.061 	"/>
	<polygon fill="#BE1E2D" points="39.279,43.534 35.849,45.804 35.849,43.864 	"/>
	<polygon fill="#BE1E2D" points="39.279,43.534 35.849,45.804 41.131,49.978 	"/>
	<polygon fill="#BE1E2D" points="35.849,45.804 35.849,53.847 38.651,48.019 	"/>
	<polygon fill="#BE1E2D" points="38.651,48.019 41.131,49.978 35.849,53.847 	"/>
	<polygon fill="#BE1E2D" points="40.199,55.626 37.826,59.559 35.849,53.847 	"/>
	<polygon fill="#BE1E2D" points="37.826,59.559 35.849,63.531 35.849,53.847 	"/>
	<polygon fill="#BE1E2D" points="40.746,61.088 37.826,59.559 40.199,55.626 	"/>
</g>
<polygon opacity="0.6" fill="#263D48" points="20.213,34.942 20.477,34.658 20.178,33.223 20.178,34.891 "/>
<polygon opacity="0.6" fill="#FFFFFF" points="12.97,17.84 10.216,22.751 7.122,16.477 "/>
<polygon opacity="0.6" fill="#FFFFFF" points="12.033,11.935 12.97,17.84 17.939,12.758 "/>
<polygon opacity="0.6" fill="#FFFFFF" points="7.122,16.477 7.973,13.326 12.97,17.84 "/>
<polygon opacity="0.6" fill="#FFFFFF" points="7.973,13.326 12.033,11.935 12.97,17.84 "/>
<polygon opacity="0.6" fill="#FFFFFF" points="12.033,11.935 14.077,10.827 17.939,12.758 "/>
<polygon opacity="0.6" fill="#FFFFFF" points="7.973,13.326 5.049,9.01 12.033,11.935 "/>
<polygon opacity="0.6" fill="#FFFFFF" points="7.122,16.477 3.09,14.405 7.973,13.326 "/>
<polygon opacity="0.6" fill="#FFFFFF" points="7.122,16.477 6.735,21.361 10.216,22.751 "/>
<polygon opacity="0.6" fill="#FFFFFF" points="14.077,10.827 12.97,7.279 12.033,11.935 "/>
<polygon opacity="0.6" fill="#FFFFFF" points="5.049,9.01 8.541,5.49 12.033,11.935 "/>
<polygon opacity="0.6" fill="#FFFFFF" points="8.541,5.49 12.97,7.279 12.033,11.935 "/>
<polygon opacity="0.6" fill="#FFFFFF" points="12.97,7.279 16.264,10.827 14.077,10.827 "/>
<polygon opacity="0.6" fill="#FFFFFF" points="14.077,10.827 17.939,12.758 16.264,10.827 "/>
<polygon opacity="0.6" fill="#FFFFFF" points="5.049,9.01 3.09,14.405 7.973,13.326 "/>
<polygon opacity="0.6" fill="#FFFFFF" points="3.09,14.405 6.735,21.361 7.122,16.477 "/>
<polygon opacity="0.6" fill="#FFFFFF" points="5.049,9.01 3,10.202 3.09,14.405 "/>
<polygon opacity="0.6" fill="#FFFFFF" points="3,10.202 5.369,5.293 5.049,9.01 "/>
<polygon opacity="0.6" fill="#FFFFFF" points="5.369,5.293 8.541,5.49 5.049,9.01 "/>
<polygon opacity="0.6" fill="#FFFFFF" points="5.369,5.293 12.033,3.815 8.541,5.49 "/>
<polygon opacity="0.6" fill="#FFFFFF" points="12.033,3.815 12.97,7.279 8.541,5.49 "/>
<polygon opacity="0.6" fill="#FFFFFF" points="12.033,3.815 17.7,7.987 12.97,7.279 "/>
<polygon opacity="0.6" fill="#FFFFFF" points="17.7,7.987 16.264,10.827 12.97,7.279 "/>
<polygon opacity="0.6" fill="#FFFFFF" points="16.264,10.827 20.048,11.207 17.939,12.758 "/>
<polygon opacity="0.6" fill="#FFFFFF" points="16.264,10.827 20.96,7.106 20.048,11.207 "/>
<polygon opacity="0.6" fill="#FFFFFF" points="28.173,20.835 25.462,19.472 24.567,23.262 "/>
<polygon opacity="0.6" fill="#FFFFFF" points="17.7,7.987 20.96,7.106 16.264,10.827 "/>
<polygon opacity="0.6" fill="#FFFFFF" points="25.781,22.318 28.173,20.835 28.315,22.893 "/>
<polygon opacity="0.6" fill="#FFFFFF" points="28.826,23.553 26.474,23.503 28.003,26.116 "/>
<polygon opacity="0.6" fill="#FFFFFF" points="20.96,7.106 22.225,9.607 20.048,11.207 "/>
<polygon opacity="0.6" fill="#FFFFFF" points="28.173,20.835 30.245,23.262 28.296,22.613 "/>
<polygon opacity="0.6" fill="#FFFFFF" points="30.245,23.262 28.826,23.553 28.003,26.116 "/>
<polygon opacity="0.6" fill="#FFFFFF" points="25.781,22.318 24.752,25.122 24.567,23.262 "/>
<polygon opacity="0.6" fill="#FFFFFF" points="25.781,22.318 28.003,26.116 24.752,25.122 "/>
<polygon opacity="0.6" fill="#FFFFFF" points="28.296,22.613 28.826,23.553 30.245,23.262 "/>
<path opacity="0.6" fill="#FFFFFF" d="M25.781,22.318c0,0-0.106,1.766,1.852,1.682c0,0,0.852-0.107,1.192-0.447
	c0,0-0.085-1.044-1.235-1.235C26.442,22.128,25.781,22.318,25.781,22.318z"/>
<circle opacity="0.6" fill="#FFFFFF" cx="27.761" cy="22.893" r="0.241"/>
<polygon opacity="0.6" fill="#FFFFFF" points="28.173,20.835 31.679,21.729 30.245,23.262 "/>
<polygon opacity="0.6" fill="#FFFFFF" points="28.173,20.835 30.245,18.976 31.679,21.729 "/>
<polygon opacity="0.6" fill="#FFFFFF" points="28.003,26.116 30.831,26.776 31.679,21.729 30.245,23.262 "/>
<polygon opacity="0.6" fill="#FFFFFF" points="28.003,26.116 29.55,27.854 30.831,26.776 "/>
<polygon opacity="0.6" fill="#FFFFFF" points="28.003,26.116 25.37,30.082 29.55,27.854 "/>
<polygon opacity="0.6" fill="#FFFFFF" points="24.752,25.122 25.37,30.082 28.003,26.116 "/>
<polygon opacity="0.6" fill="#FFFFFF" points="24.752,25.122 21.799,29.686 25.37,30.082 "/>
<polygon opacity="0.6" fill="#FFFFFF" points="29.55,27.854 28.003,34.817 25.37,30.029 "/>
<polyline opacity="0.6" fill="#FFFFFF" points="35.658,21.637 31.679,21.729 35.658,18.805 "/>
<polyline opacity="0.6" fill="#FFFFFF" points="35.658,21.637 31.679,21.729 32.417,29.139 35.658,21.637 "/>
<polyline opacity="0.6" fill="#FFFFFF" points="35.658,28.344 32.417,29.139 35.658,21.637 "/>
<polygon opacity="0.6" fill="#FFFFFF" points="32.417,29.139 29.55,27.854 30.831,26.776 "/>
<polygon opacity="0.6" fill="#FFFFFF" points="31.679,21.729 30.831,26.776 32.417,29.139 "/>
<polyline opacity="0.6" fill="#FFFFFF" points="35.658,28.344 32.417,29.139 32.892,30.499 35.658,28.344 "/>
<polyline opacity="0.6" fill="#FFFFFF" points="35.658,28.344 32.892,30.499 35.658,31.581 "/>
<polygon opacity="0.6" fill="#FFFFFF" points="32.417,29.139 30.458,32.432 32.892,30.499 "/>
<polygon opacity="0.6" fill="#FFFFFF" points="30.458,32.432 28.003,34.817 29.55,27.854 "/>
<polygon opacity="0.6" fill="#FFFFFF" points="29.55,27.854 32.417,29.139 30.458,32.432 "/>
<polygon opacity="0.6" fill="#FFFFFF" points="30.458,32.432 30.375,35.233 28.003,34.817 "/>
<polygon opacity="0.6" fill="#FFFFFF" points="28.003,34.817 25.781,40.24 28.584,38.565 "/>
<polygon opacity="0.6" fill="#FFFFFF" points="30.375,35.233 28.29,36.664 30.983,37.685 "/>
<polygon opacity="0.6" fill="#FFFFFF" points="30.375,35.233 28.29,36.664 28.003,34.817 "/>
<polyline opacity="0.6" fill="#FFFFFF" points="35.658,39.527 30.983,37.685 29.841,40.751 35.658,39.527 "/>
<polyline opacity="0.6" fill="#FFFFFF" points="35.658,39.527 29.841,40.751 32.417,42.227 35.658,39.527 "/>
<polygon opacity="0.6" fill="#FFFFFF" points="29.841,40.751 28.826,45.236 32.417,42.227 "/>
<polygon opacity="0.6" fill="#FFFFFF" points="25.781,40.24 29.841,40.751 28.584,38.565 "/>
<polygon opacity="0.6" fill="#FFFFFF" points="30.983,37.685 28.584,38.565 29.841,40.751 "/>
<polygon opacity="0.6" fill="#FFFFFF" points="28.29,36.664 28.584,38.565 30.983,37.685 "/>
<polygon opacity="0.6" fill="#FFFFFF" points="29.841,40.751 27.811,40.495 28.826,45.236 "/>
<polyline opacity="0.6" fill="#FFFFFF" points="35.658,39.527 32.417,42.227 35.658,41.83 "/>
<polyline opacity="0.6" fill="#FFFFFF" points="35.658,41.83 32.417,42.227 30.375,43.938 32.228,43.278 35.658,43.608 "/>
<polyline opacity="0.6" fill="#FFFFFF" points="34.509,34.43 33.837,36.664 30.375,35.233 34.509,34.43 "/>
<polyline opacity="0.6" fill="#FFFFFF" points="35.658,37.117 33.837,36.664 35.658,39.527 "/>
<polyline opacity="0.6" fill="#FFFFFF" points="35.658,39.527 33.837,36.664 30.983,37.685 35.658,39.527 "/>
<polyline opacity="0.6" fill="#FFFFFF" points="35.658,31.581 32.892,30.499 30.458,32.432 30.375,35.233 34.509,34.43 "/>
<polyline opacity="0.6" fill="#FFFFFF" points="34.509,34.43 33.837,36.664 35.658,37.117 "/>
<polygon opacity="0.6" fill="#FFFFFF" points="33.837,36.664 30.375,35.233 30.983,37.685 "/>
<polyline opacity="0.6" fill="#FFFFFF" points="34.509,34.43 34.275,32.148 33.333,32.432 33.133,33.324 34.509,34.43 "/>
<polygon opacity="0.6" fill="#FFFFFF" points="25.462,19.472 21.799,21.361 21.799,26.116 "/>
<polygon opacity="0.6" fill="#FFFFFF" points="30.245,18.976 33.493,15.744 31.679,21.729 "/>
<polygon opacity="0.6" fill="#FFFFFF" points="16.912,33.794 12.366,31.408 13.694,38.989 "/>
<polygon opacity="0.6" fill="#FFFFFF" points="16.912,33.794 14.59,26.149 18.087,25.193 "/>
<polygon opacity="0.6" fill="#FFFFFF" points="18.087,25.193 19.045,19.614 21.799,21.361 "/>
<polygon opacity="0.6" fill="#FFFFFF" points="17.939,12.758 14.59,26.149 12.97,17.84 "/>
<polygon opacity="0.6" fill="#FFFFFF" points="12.97,17.84 10.216,22.751 14.59,26.149 "/>
<polygon opacity="0.6" fill="#FFFFFF" points="28.173,20.835 25.462,19.472 21.635,17.658 29.23,16.143 "/>
<polygon opacity="0.6" fill="#FFFFFF" points="29.23,16.143 30.245,18.976 28.173,20.835 "/>
<polygon opacity="0.6" fill="#FFFFFF" points="29.23,16.143 29.461,12.18 33.493,15.744 30.245,18.976 "/>
<polygon opacity="0.6" fill="#FFFFFF" points="21.635,17.658 19.045,19.614 21.799,21.361 "/>
<polygon opacity="0.6" fill="#FFFFFF" points="29.23,16.143 25.027,13.099 29.461,12.18 "/>
<polygon opacity="0.6" fill="#FFFFFF" points="26.831,14.405 29.23,16.143 21.635,17.658 "/>
<polygon opacity="0.6" fill="#FFFFFF" points="25.027,13.099 21.635,17.658 26.831,14.405 "/>
<polygon opacity="0.6" fill="#FFFFFF" points="21.635,17.658 17.939,12.758 25.027,13.099 "/>
<polygon opacity="0.6" fill="#FFFFFF" points="21.635,17.658 19.045,19.614 15.454,22.318 16.787,17.361 "/>
<polygon opacity="0.6" fill="#FFFFFF" points="17.939,12.758 21.635,17.658 16.787,17.361 "/>
<polygon opacity="0.6" fill="#FFFFFF" points="19.045,19.614 14.59,26.149 15.454,22.318 "/>
<polygon opacity="0.6" fill="#FFFFFF" points="19.045,19.614 18.087,25.193 14.59,26.149 "/>
<polygon opacity="0.6" fill="#FFFFFF" points="16.912,33.794 19.477,42.458 13.694,38.989 "/>
<polygon opacity="0.6" fill="#FFFFFF" points="13.694,38.989 14.687,43.678 19.477,42.458 "/>
<polygon opacity="0.6" fill="#FFFFFF" points="14.687,43.678 11.877,42.458 13.694,38.989 "/>
<polygon opacity="0.6" fill="#FFFFFF" points="13.694,38.989 10.046,38.093 11.877,42.458 "/>
<polygon opacity="0.6" fill="#FFFFFF" points="10.046,38.093 13.059,35.365 13.694,38.989 "/>
<polygon opacity="0.6" fill="#FFFFFF" points="10.046,38.093 9.257,35.356 13.059,35.365 "/>
<polygon opacity="0.6" fill="#FFFFFF" points="9.257,35.356 12.366,31.408 13.059,35.365 "/>
<polygon opacity="0.6" fill="#FFFFFF" points="12.366,31.408 14.59,26.149 9.024,31.581 "/>
<polygon opacity="0.6" fill="#FFFFFF" points="12.366,31.408 9.257,35.356 9.024,31.581 "/>
<polygon opacity="0.6" fill="#FFFFFF" points="14.59,26.149 16.912,33.794 12.366,31.408 "/>
<polygon opacity="0.6" fill="#FFFFFF" points="14.59,26.149 10.216,22.751 9.024,31.581 "/>
<polygon opacity="0.6" fill="#FFFFFF" points="16.912,33.794 21.799,29.686 20.968,35.111 "/>
<polygon opacity="0.6" fill="#FFFFFF" points="21.799,29.686 25.37,30.029 20.968,35.111 "/>
<polygon opacity="0.6" fill="#FFFFFF" points="25.37,30.029 25.781,40.24 28.003,34.817 "/>
<polygon opacity="0.6" fill="#FFFFFF" points="20.968,35.111 22.822,41.334 25.781,40.24 "/>
<polygon opacity="0.6" fill="#FFFFFF" points="20.968,35.111 25.599,34.817 25.781,40.24 "/>
<polygon opacity="0.6" fill="#FFFFFF" points="20.968,35.111 25.37,30.029 25.599,34.817 "/>
<polygon opacity="0.6" fill="#FFFFFF" points="20.968,35.111 19.477,42.458 22.822,41.334 "/>
<polygon opacity="0.6" fill="#FFFFFF" points="20.968,35.111 16.912,33.794 19.477,42.458 "/>
<polygon opacity="0.6" fill="#FFFFFF" points="21.799,29.686 21.799,26.116 16.912,33.794 "/>
<polygon opacity="0.6" fill="#FFFFFF" points="21.799,26.116 18.087,25.193 16.912,33.794 "/>
<polygon opacity="0.6" fill="#FFFFFF" points="18.087,25.193 21.799,21.361 21.799,26.116 "/>
<polygon opacity="0.6" fill="#FFFFFF" points="25.462,19.472 24.567,23.262 21.799,26.116 "/>
<polygon opacity="0.6" fill="#FFFFFF" points="25.462,19.472 21.635,17.658 21.799,21.361 "/>
<polygon opacity="0.6" fill="#FFFFFF" points="24.752,25.122 21.799,26.116 24.567,23.262 "/>
<polygon opacity="0.6" fill="#FFFFFF" points="24.752,25.122 21.799,29.686 21.799,26.116 "/>
<polygon opacity="0.6" fill="#FFFFFF" points="29.461,12.18 29.976,6.881 32.989,12.291 "/>
<polyline opacity="0.6" fill="#FFFFFF" points="35.658,12.041 32.989,12.291 35.658,7.987 "/>
<polyline opacity="0.6" fill="#FFFFFF" points="35.658,7.987 32.989,12.291 29.976,6.881 35.658,7.987 "/>
<polygon opacity="0.6" fill="#FFFFFF" points="32.989,12.291 33.493,15.744 29.461,12.18 "/>
<polyline opacity="0.6" fill="#FFFFFF" points="35.658,12.041 32.989,12.291 33.493,15.744 35.658,12.041 "/>
<polyline opacity="0.6" fill="#FFFFFF" points="35.658,12.041 33.493,15.744 35.658,18.805 "/>
<polyline opacity="0.6" fill="#FFFFFF" points="35.658,18.805 33.493,15.744 31.679,21.729 35.658,18.805 "/>
<polygon opacity="0.6" fill="#FFFFFF" points="29.461,12.18 22.225,9.607 29.976,6.881 "/>
<polygon opacity="0.6" fill="#FFFFFF" points="22.225,9.607 25.027,13.099 29.461,12.18 "/>
<polygon opacity="0.6" fill="#FFFFFF" points="17.939,12.758 22.225,9.607 25.027,13.099 "/>
<polygon opacity="0.6" fill="#FFFFFF" points="25.781,40.24 23.202,44.691 27.811,40.495 "/>
<polygon opacity="0.6" fill="#FFFFFF" points="27.811,40.495 28.826,45.236 23.202,44.691 "/>
<polygon opacity="0.6" fill="#FFFFFF" points="23.202,44.691 22.822,41.334 25.781,40.24 "/>
<polygon opacity="0.6" fill="#FFFFFF" points="22.822,41.334 19.477,42.458 23.202,44.691 "/>
<polygon opacity="0.6" fill="#FFFFFF" points="23.202,44.691 27.183,52.064 28.826,45.236 "/>
<polygon opacity="0.6" fill="#FFFFFF" points="28.826,45.236 30.375,49.722 27.183,52.064 "/>
<polygon opacity="0.6" fill="#FFFFFF" points="23.202,44.691 22.196,49.134 27.183,52.064 "/>
<polygon opacity="0.6" fill="#FFFFFF" points="22.196,49.134 20.653,52.985 22.196,56.706 "/>
<polygon opacity="0.6" fill="#FFFFFF" points="22.196,49.134 26.194,57.461 22.196,55.171 "/>
<polygon opacity="0.6" fill="#FFFFFF" points="22.196,55.171 24.993,59.304 26.194,57.461 "/>
<polygon opacity="0.6" fill="#FFFFFF" points="22.196,49.134 19.477,42.458 23.202,44.691 "/>
<polygon opacity="0.6" fill="#FFFFFF" points="27.183,52.064 26.194,57.461 22.196,49.134 "/>
<polygon opacity="0.6" fill="#FFFFFF" points="30.375,49.722 26.194,57.461 27.183,52.064 "/>
<polyline opacity="0.6" fill="#FFFFFF" points="35.658,53.592 26.194,57.461 30.375,49.722 35.658,53.592 "/>
<polygon opacity="0.6" fill="#FFFFFF" points="30.375,49.722 32.228,43.278 30.375,43.938 28.826,45.236 "/>
<polyline opacity="0.6" fill="#FFFFFF" points="35.658,43.608 32.228,43.278 35.658,45.549 "/>
<polyline opacity="0.6" fill="#FFFFFF" points="35.658,45.549 30.375,49.722 32.228,43.278 35.658,45.549 "/>
<polyline opacity="0.6" fill="#FFFFFF" points="35.658,53.592 32.855,47.763 35.658,45.549 "/>
<polyline opacity="0.6" fill="#FFFFFF" points="35.658,53.592 32.855,47.763 30.375,49.722 35.658,53.592 "/>
<polygon opacity="0.6" fill="#FFFFFF" points="22.196,49.134 18.35,46.698 19.477,42.458 "/>
<polygon opacity="0.6" fill="#FFFFFF" points="18.35,46.698 20.653,52.985 22.196,49.134 "/>
<polygon opacity="0.6" fill="#FFFFFF" points="18.35,46.698 14.687,43.678 19.477,42.458 "/>
<polygon opacity="0.6" fill="#FFFFFF" points="18.35,46.698 17.659,50.101 20.653,52.985 "/>
<polygon opacity="0.6" fill="#FFFFFF" points="14.687,43.678 14.687,46.5 18.35,46.698 "/>
<polygon opacity="0.6" fill="#FFFFFF" points="14.687,43.678 11.877,42.458 14.687,46.5 "/>
<polygon opacity="0.6" fill="#FFFFFF" points="18.35,46.698 14.687,46.5 17.659,50.101 "/>
<polygon opacity="0.6" fill="#FFFFFF" points="26.194,57.461 30.76,60.832 31.307,55.371 "/>
<polyline opacity="0.6" fill="#FFFFFF" points="35.658,53.592 31.307,55.371 33.681,59.304 35.658,53.592 "/>
<polyline opacity="0.6" fill="#FFFFFF" points="35.658,53.592 33.681,59.304 35.658,63.275 "/>
<polygon opacity="0.6" fill="#FFFFFF" points="30.76,60.832 33.681,59.304 31.307,55.371 "/>
<polygon opacity="0.6" fill="#FFFFFF" points="30.76,60.832 34.156,62.666 33.681,59.304 "/>
<polygon opacity="0.6" fill="#FFFFFF" points="26.194,57.461 28.423,61.701 28.547,59.198 "/>
<polygon opacity="0.6" fill="#FFFFFF" points="28.547,59.198 30.882,63.009 30.76,60.832 "/>
</svg>
